<svg xmlns="http://www.w3.org/2000/svg" style="display: none;">
  <symbol id="icon-stats" viewBox="0 0 24 24">
    <title>stats</title>
    <g fill="none" class="nc-icon-wrapper" stroke="none">
      <path d="M14.504 4.752a2.752 2.752 0 1 0-5.504 0V19.25a2.752 2.752 0 0 0 3.667 2.597 6.513 6.513 0 0 1-.934-1.345A1.252 1.252 0 0 1 10.5 19.25V4.752a1.252 1.252 0 0 1 2.504 0v8.055c.444-.426.949-.79 1.5-1.076V4.75z" fill="currentColor"/>
      <path d="M21.504 12.38V9.752a2.752 2.752 0 1 0-5.504 0v1.422a6.52 6.52 0 0 1 1.5-.173V9.75a1.252 1.252 0 0 1 2.504 0v1.75a6.492 6.492 0 0 1 1.5.879z" fill="currentColor"/>
      <path d="M4.752 12a2.752 2.752 0 0 1 2.752 2.752v4.498a2.752 2.752 0 0 1-5.504 0v-4.498A2.752 2.752 0 0 1 4.752 12zm0 1.5c-.692 0-1.252.56-1.252 1.252v4.498a1.252 1.252 0 1 0 2.504 0v-4.498c0-.692-.56-1.252-1.252-1.252z" fill="currentColor"/>
      <path d="M23 17.5a5.5 5.5 0 1 0-11 0 5.5 5.5 0 0 0 11 0zm-5 .5l.001 2.504a.5.5 0 1 1-1 0v-2.503h-2.505a.5.5 0 0 1 0-1H17V14.5a.5.5 0 1 1 1 0V17h2.503a.5.5 0 1 1 0 1h-2.502z" fill="currentColor"/>
    </g>
  </symbol>
  <symbol id="icon-create-test" viewBox="0 0 24 24">
    <title>create test</title>
    <g fill="none" class="nc-icon-wrapper" stroke="none">
      <path d="M21.03 2.97a3.578 3.578 0 0 1 0 5.06l-2.644 2.645a6.45 6.45 0 0 0-1.579-.543L17.94 9 15 6.06 5.062 16a.75.75 0 0 0-.193.333l-1.05 3.85 3.85-1.05A.75.75 0 0 0 8 18.938l1.13-1.13c.114.555.298 1.085.543 1.579l-.612.612a2.25 2.25 0 0 1-.999.58l-5.116 1.395a.75.75 0 0 1-.92-.921l1.395-5.116a2.25 2.25 0 0 1 .58-.999L15.97 2.97a3.578 3.578 0 0 1 5.06 0zM15.5 11c.293 0 .58.025.86.072l.174.716a2 2 0 0 0 2.413 1.475l.098-.026.601-.179c.363.467.653.997.854 1.57l-.447.431a2 2 0 0 0-.17 2.699l.142.157.475.457c-.2.573-.49 1.102-.853 1.57l-.602-.179a2 2 0 0 0-2.485 1.352l-.026.098-.173.716a5.18 5.18 0 0 1-1.723 0l-.172-.716a2 2 0 0 0-2.413-1.476l-.098.026-.602.178a5.549 5.549 0 0 1-.853-1.57l.447-.43a2 2 0 0 0 .055-2.827l-.055-.055-.447-.43c.2-.574.49-1.103.853-1.57l.602.178a2 2 0 0 0 2.485-1.351l.026-.098.172-.716c.28-.047.569-.072.862-.072zm0 4c-.8 0-1.45.672-1.45 1.5 0 .829.65 1.5 1.45 1.5.8 0 1.45-.671 1.45-1.5 0-.828-.65-1.5-1.45-1.5zm1.53-10.97l-.97.97L19 7.94l.97-.97a2.078 2.078 0 1 0-2.94-2.94z" fill="currentColor"/>
    </g>
  </symbol>
  <symbol id="icon-grading" viewBox="0 0 24 24">
    <title>grading</title>
    <g fill="none" class="nc-icon-wrapper" stroke="none">
      <path d="M18.5 20a.5.5 0 0 1-.5.5h-5.732A6.518 6.518 0 0 1 11.19 22H18a2 2 0 0 0 2-2V9.828a2 2 0 0 0-.586-1.414l-5.829-5.828a.491.491 0 0 0-.049-.04.63.63 0 0 1-.036-.03 2.072 2.072 0 0 0-.219-.18.652.652 0 0 0-.08-.044l-.048-.024-.05-.029c-.054-.031-.109-.063-.166-.087a1.977 1.977 0 0 0-.624-.138c-.02-.001-.04-.004-.059-.007A.605.605 0 0 0 12.172 2H6a2 2 0 0 0-2 2v7.498a6.451 6.451 0 0 1 1.5-.422V4a.5.5 0 0 1 .5-.5h6V8a2 2 0 0 0 2 2h4.5v10zm-5-15.379L17.378 8.5H14a.5.5 0 0 1-.5-.5V4.621zM12 17.5a5.5 5.5 0 1 1-11 0 5.5 5.5 0 0 1 11 0zm-2.146-2.354a.5.5 0 0 0-.708 0L5.5 18.793l-1.646-1.647a.5.5 0 0 0-.708.708l2 2a.5.5 0 0 0 .708 0l4-4a.5.5 0 0 0 0-.708z" fill="currentColor"/>
    </g>
  </symbol>
</svg>