<svg xmlns="http://www.w3.org/2000/svg" style="display: none;">
  <symbol id="icon-toolkit_icon" viewBox="0 0 397.012 242.362">
    <title>toolkit icon</title>
    <g class="nc-icon-wrapper">
      <g transform="translate(-54.438 -126.55)">
        <path d="M71.8 263.5h83.8" fill="none" stroke="#09242d" stroke-linecap="round" stroke-linejoin="round" stroke-miterlimit="10" stroke-width="4"/>
        <path d="M116.2 273.7h-5.1a2.134 2.134 0 0 1-2.15-2.15V256.2a2.134 2.134 0 0 1 2.15-2.15h5.1a2.134 2.134 0 0 1 2.15 2.15v15.35a2.166 2.166 0 0 1-2.15 2.15z" fill="#bfbfbf" stroke="#09242d" stroke-width=".5"/>
        <path d="M109.85 254.4a2.246 2.246 0 0 0-.95 1.8v15.35a2.246 2.246 0 0 0 .95 1.8c1.6-1.45 2.8-5.15 2.8-9.45 0-4.35-1.15-8.05-2.8-9.5z" fill="#fff" stroke="#09242d" stroke-width=".5"/>
        <path d="M116.2 273.7h-5.1a2.134 2.134 0 0 1-2.15-2.15V256.2a2.134 2.134 0 0 1 2.15-2.15h5.1a2.134 2.134 0 0 1 2.15 2.15v15.35a2.166 2.166 0 0 1-2.15 2.15z" fill="none" stroke="#09242d" stroke-linecap="round" stroke-linejoin="round" stroke-miterlimit="10" stroke-width="3"/>
        <path d="M159.85 317.9l-9.35 3.45L110.3 211l14.6-5.3 26.2 72z" fill="#fff" stroke="#09242d" stroke-width=".5"/>
        <path d="M151.1 277.7l-26.2-72-4 1.45 25.7 70.55 8.75 40.2-5.4 2 .55 1.45 9.35-3.45z" fill="#bfbfbf" stroke="#09242d" stroke-width=".5"/>
        <path d="M125.4 205.2l-14.6 5.3 11.3 31.1a11.351 11.351 0 0 0 10.7-8.6c.35-1.55.7-3.05 1.05-4.55l-8.45-23.25z" fill="#bfbfbf" stroke="#09242d" stroke-width=".5"/>
        <path d="M165.1 351.75l5.3 14.6" fill="none" stroke="#09242d" stroke-linecap="round" stroke-linejoin="round" stroke-miterlimit="10" stroke-width="4"/>
        <path d="M155.622 335.417l6.249-2.274 6.053 16.632-6.249 2.275z" fill="#bfbfbf" stroke="#09242d" stroke-width=".5"/>
        <path d="M159.85 317.9l-9.35 3.45L110.3 211l14.6-5.3 26.2 72z" fill="none" stroke="#09242d" stroke-linecap="round" stroke-linejoin="round" stroke-miterlimit="10" stroke-width="4"/>
        <path d="M155.622 335.417l6.249-2.274 6.053 16.632-6.249 2.275z" fill="none" stroke="#09242d" stroke-linecap="round" stroke-linejoin="round" stroke-miterlimit="10" stroke-width="4"/>
        <circle cx="9.95" cy="9.95" r="9.95" transform="translate(148.15 316.1)" fill="#fff" stroke="#09242d" stroke-width=".5"/>
        <path d="M160.65 321.95a9.992 9.992 0 0 0-5.95 12.8 3.87 3.87 0 0 0 .35.8 10.18 10.18 0 0 0 6.45-.1 9.992 9.992 0 0 0 5.95-12.8 3.87 3.87 0 0 0-.35-.8 9.542 9.542 0 0 0-6.45.1z" fill="#bfbfbf" stroke="#09242d" stroke-width=".5"/>
        <circle cx="9.95" cy="9.95" r="9.95" transform="translate(148.15 316.1)" fill="none" stroke="#09242d" stroke-linecap="round" stroke-linejoin="round" stroke-miterlimit="10" stroke-width="4"/>
        <path d="M67.55 317.9l9.4 3.45L117.1 211l-14.55-5.3-26.25 72z" fill="#fff" stroke="#09242d" stroke-width=".5"/>
        <path d="M67.55 317.9l9.4 3.45L117.1 211l-14.55-5.3-26.25 72z" fill="#fff" stroke="#09242d" stroke-width=".5"/>
        <path d="M102.55 205.7l-.55 1.45 10.6 3.85-39.65 108.9 4 1.45L117.1 211z" fill="#bfbfbf" stroke="#09242d" stroke-width=".5"/>
        <path d="M103.55 205.2l-8.45 23.25c.3 1.5.65 3 1.05 4.55a11.362 11.362 0 0 0 10.7 8.55l11.3-31.1-14.6-5.25z" fill="#bfbfbf" stroke="#09242d" stroke-width=".5"/>
        <path d="M67.55 317.9l9.4 3.45L117.1 211l-14.55-5.3-26.25 72z" fill="none" stroke="#09242d" stroke-linecap="round" stroke-linejoin="round" stroke-miterlimit="10" stroke-width="4"/>
        <path d="M59.478 349.784l6.053-16.633 6.25 2.275-6.054 16.632z" fill="#bfbfbf" stroke="#09242d" stroke-width=".5"/>
        <path d="M59.478 349.784l6.053-16.633 6.25 2.275-6.054 16.632z" fill="none" stroke="#09242d" stroke-linecap="round" stroke-linejoin="round" stroke-miterlimit="10" stroke-width="4"/>
        <path d="M62.3 351.75l-5.3 14.6" fill="none" stroke="#09242d" stroke-linecap="round" stroke-linejoin="round" stroke-miterlimit="10" stroke-width="4"/>
        <circle cx="9.95" cy="9.95" r="9.95" transform="rotate(-88.093 203.045 137.303)" fill="#fff" stroke="#09242d" stroke-width=".5"/>
        <circle cx="9.95" cy="9.95" r="9.95" transform="rotate(-88.093 203.045 137.303)" fill="#fff" stroke="#09242d" stroke-width=".5"/>
        <path d="M78.7 329.45a9.742 9.742 0 0 0-.35-7.6 9.9 9.9 0 0 0-12.4 6.05 9.742 9.742 0 0 0 .35 7.6 9.938 9.938 0 0 0 12.4-6.05z" fill="#bfbfbf" stroke="#09242d" stroke-width=".5"/>
        <circle cx="9.95" cy="9.95" r="9.95" transform="rotate(-88.093 203.045 137.303)" fill="none" stroke="#09242d" stroke-linecap="round" stroke-linejoin="round" stroke-miterlimit="10" stroke-width="4"/>
        <path d="M121.45 236.6h-15.5a5.856 5.856 0 0 1-5.5-4.4c-2.75-11.6-4.65-23.35-4.45-34.95a6.1 6.1 0 0 1 5.9-5.55h23.7a6.1 6.1 0 0 1 5.9 5.55c.2 11.6-1.7 23.35-4.45 34.95a6.069 6.069 0 0 1-5.6 4.4z" fill="#bfbfbf" stroke="#09242d" stroke-width=".5"/>
        <path d="M100.25 232.2c-2.75-11.6-4.65-23.35-4.45-34.95a6.1 6.1 0 0 1 5.9-5.55h16.9a42.457 42.457 0 0 1-.35 19.55c-2.55 10.1-5.85 23.9-16.15 23.9a5.742 5.742 0 0 1-1.85-2.95z" fill="#fff" stroke="#09242d" stroke-width=".5"/>
        <path d="M121.45 236.6h-15.5a5.856 5.856 0 0 1-5.5-4.4c-2.75-11.6-4.65-23.35-4.45-34.95a6.1 6.1 0 0 1 5.9-5.55h23.7a6.1 6.1 0 0 1 5.9 5.55c.2 11.6-1.7 23.35-4.45 34.95a6.069 6.069 0 0 1-5.6 4.4z" fill="none" stroke="#09242d" stroke-linecap="round" stroke-linejoin="round" stroke-miterlimit="10" stroke-width="4"/>
        <path d="M104.65 144.65h17.7v39.3h-17.7z" fill="#bfbfbf" stroke="#09242d" stroke-width=".5"/>
        <path d="M104.65 144.65h5v39.3h-5z" fill="#bfbfbf" stroke="#09242d" stroke-width=".5"/>
        <path d="M116.15 144.65h6.25v39.3h-6.25z" fill="#bfbfbf" stroke="#09242d" stroke-width=".5"/>
        <path d="M104.65 144.65h17.7v39.3h-17.7z" fill="none" stroke="#09242d" stroke-linecap="round" stroke-linejoin="round" stroke-miterlimit="10" stroke-width="4"/>
        <path d="M108.85 183.95h9.4v7.75h-9.4z" fill="#606060" stroke="#09242d" stroke-width=".5"/>
        <path d="M108.85 183.95h9.4v7.75h-9.4z" fill="none" stroke="#09242d" stroke-linecap="round" stroke-linejoin="round" stroke-miterlimit="10" stroke-width="4"/>
        <path d="M110.3 151.65v22.7" fill="none" stroke="#09242d" stroke-linecap="round" stroke-linejoin="round" stroke-miterlimit="10" stroke-width="3"/>
        <circle cx="5.25" cy="5.25" r="5.25" transform="translate(109.2 208.75)" fill="#606060" stroke="#09242d" stroke-width=".5"/>
        <circle cx="5.25" cy="5.25" r="5.25" transform="translate(109.2 208.75)" fill="none" stroke="#09242d" stroke-linecap="round" stroke-linejoin="round" stroke-miterlimit="10" stroke-width="4"/>
        <path d="M295.95 195.7H202.8a16.141 16.141 0 0 0-15.6 11.7 48.871 48.871 0 0 0 0 26.55 16.141 16.141 0 0 0 15.6 11.7h93.15a7.677 7.677 0 0 0 7.7-7.2 264.337 264.337 0 0 0 0-35.6 7.705 7.705 0 0 0-7.7-7.15z" fill="#1d4928" stroke="#09242d" stroke-width=".5"/>
        <path d="M295.95 195.7H202.8a16.141 16.141 0 0 0-15.6 11.7 48.871 48.871 0 0 0 0 26.55 16.141 16.141 0 0 0 15.6 11.7h93.15a7.677 7.677 0 0 0 7.7-7.2 264.337 264.337 0 0 0 0-35.6 7.705 7.705 0 0 0-7.7-7.15z" fill="none" stroke="#09242d" stroke-linecap="round" stroke-linejoin="round" stroke-miterlimit="10" stroke-width="4"/>
        <path d="M295.95 195.7H202.8a16.141 16.141 0 0 0-15.6 11.7 48.871 48.871 0 0 0 0 26.55 16.141 16.141 0 0 0 15.6 11.7h93.15a7.677 7.677 0 0 0 7.7-7.2 264.337 264.337 0 0 0 0-35.6 7.705 7.705 0 0 0-7.7-7.15z" fill="none" stroke="#09242d" stroke-linecap="round" stroke-linejoin="round" stroke-miterlimit="10" stroke-width="4"/>
        <path d="M237 236.4a83.175 83.175 0 0 1 0-31.45h123.7c0 7.2-1.6 18.95-5.9 27.15a8 8 0 0 1-7.1 4.3z" fill="#c4c4c4" stroke="#09242d" stroke-width=".5"/>
        <path d="M357.45 204.95c-.5 7.05-2.2 16.3-5.75 23.15a8 8 0 0 1-7.1 4.3H236.3c.2 1.35.4 2.7.65 4.05h110.7a8 8 0 0 0 7.1-4.3c4.3-8.2 5.9-19.95 5.9-27.15-1.05-.05-2.1-.05-3.2-.05z" fill="#c4c4c4" stroke="#09242d" stroke-width=".5" opacity=".77"/>
        <path d="M237 236.4a83.175 83.175 0 0 1 0-31.45h123.7c0 7.2-1.6 18.95-5.9 27.15a8 8 0 0 1-7.1 4.3z" fill="none" stroke="#09242d" stroke-linecap="round" stroke-linejoin="round" stroke-miterlimit="10" stroke-width="4"/>
        <path d="M360.25 211.85c.25-2.5.4-4.9.4-6.9h-123.7c-.45 2.3-.75 4.6-1 6.9z" fill="#fff" stroke="#09242d" stroke-width=".5"/>
        <path d="M360.25 211.85c.25-2.5.4-4.9.4-6.9h-123.7c-.45 2.3-.75 4.6-1 6.9z" fill="none" stroke="#09242d" stroke-linecap="round" stroke-linejoin="round" stroke-miterlimit="10" stroke-width="4"/>
        <path d="M240.65 212.85l-6.95 23.55" fill="none" stroke="#09242d" stroke-linecap="round" stroke-linejoin="round" stroke-miterlimit="10" stroke-width="4"/>
        <path d="M253.75 212.85l-6.95 23.55" fill="none" stroke="#09242d" stroke-linecap="round" stroke-linejoin="round" stroke-miterlimit="10" stroke-width="4"/>
        <path d="M266.8 212.85l-6.95 23.55" fill="none" stroke="#09242d" stroke-linecap="round" stroke-linejoin="round" stroke-miterlimit="10" stroke-width="4"/>
        <path d="M279.9 212.85l-6.95 23.55" fill="none" stroke="#09242d" stroke-linecap="round" stroke-linejoin="round" stroke-miterlimit="10" stroke-width="4"/>
        <path d="M293 212.85l-6.95 23.55" fill="none" stroke="#09242d" stroke-linecap="round" stroke-linejoin="round" stroke-miterlimit="10" stroke-width="4"/>
        <path d="M306.05 212.85l-6.95 23.55" fill="none" stroke="#09242d" stroke-linecap="round" stroke-linejoin="round" stroke-miterlimit="10" stroke-width="4"/>
        <path d="M319.15 212.85l-6.95 23.55" fill="none" stroke="#09242d" stroke-linecap="round" stroke-linejoin="round" stroke-miterlimit="10" stroke-width="4"/>
        <path d="M332.25 212.85l-6.95 23.55" fill="none" stroke="#09242d" stroke-linecap="round" stroke-linejoin="round" stroke-miterlimit="10" stroke-width="4"/>
        <path d="M345.3 212.85l-6.95 23.55" fill="none" stroke="#09242d" stroke-linecap="round" stroke-linejoin="round" stroke-miterlimit="10" stroke-width="4"/>
        <path d="M304.15 212.85c-.1-3.3-.25-6.65-.5-9.95a7.711 7.711 0 0 0-7.7-7.2H202.8a16.141 16.141 0 0 0-15.6 11.7 50.414 50.414 0 0 0-1.2 5.45z" fill="#47a942" stroke="#09242d" stroke-width=".5"/>
        <path d="M204.5 202.9h93.15a7.9 7.9 0 0 1 6.15 3l-.15-2.55a7.711 7.711 0 0 0-7.7-7.2H202.8a16.141 16.141 0 0 0-15.6 11.7 50.414 50.414 0 0 0-1.2 5.45h3.35a16.133 16.133 0 0 1 15.15-10.4z" fill="#81c347" stroke="#09242d" stroke-width=".5"/>
        <path d="M303.65 203.4a7.711 7.711 0 0 0-7.7-7.2H202.8a16.141 16.141 0 0 0-15.6 11.7 50.414 50.414 0 0 0-1.2 5.45h.1l.45-1.8a16.141 16.141 0 0 1 15.6-11.7h93.15a7.62 7.62 0 0 1 7.1 4.7 7.423 7.423 0 0 1 1.4 1.4c-.05-.9-.1-1.7-.15-2.55z" fill="#cadb2a" stroke="#09242d" stroke-width=".5"/>
        <path d="M304.15 212.85c-.1-3.3-.25-6.65-.5-9.95a7.711 7.711 0 0 0-7.7-7.2H202.8a16.141 16.141 0 0 0-15.6 11.7 50.414 50.414 0 0 0-1.2 5.45z" fill="none" stroke="#09242d" stroke-linecap="round" stroke-linejoin="round" stroke-miterlimit="10" stroke-width="4"/>
        <path d="M303.65 238.5c.25-3.6.4-7.25.5-10.85l-2.7-1.7-7.45 4.75-7.45-4.75-7.45 4.75-7.45-4.75-7.45 4.75-7.45-4.75-7.45 4.75-7.45-4.75-7.45 4.75-7.45-4.75-7.45 4.75-7.45-4.75-7.45 4.75-7.45-4.75-7.45 4.75-3.85-2.45a45.324 45.324 0 0 0 1.25 5.75 16.141 16.141 0 0 0 15.6 11.7h93.15a7.81 7.81 0 0 0 7.8-7.2z" fill="#47a942" stroke="#09242d" stroke-width=".5"/>
        <path d="M303.75 227.35l-.3 5.7a7.711 7.711 0 0 1-7.7 7.2h-93.2a16.239 16.239 0 0 1-15.5-11.3l-1.15-.75a45.324 45.324 0 0 0 1.25 5.75 16.141 16.141 0 0 0 15.6 11.7h93.15a7.677 7.677 0 0 0 7.7-7.2c.25-3.6.4-7.25.5-10.85l-.35-.25z" fill="#26863f" stroke="#09242d" stroke-width=".5"/>
        <path d="M303.65 238.5c.25-3.6.4-7.25.5-10.85l-2.7-1.7-7.45 4.75-7.45-4.75-7.45 4.75-7.45-4.75-7.45 4.75-7.45-4.75-7.45 4.75-7.45-4.75-7.45 4.75-7.45-4.75-7.45 4.75-7.45-4.75-7.45 4.75-7.45-4.75-7.45 4.75-3.85-2.45a45.324 45.324 0 0 0 1.25 5.75 16.141 16.141 0 0 0 15.6 11.7h93.15a7.81 7.81 0 0 0 7.8-7.2z" fill="none" stroke="#09242d" stroke-linecap="round" stroke-linejoin="round" stroke-miterlimit="10" stroke-width="4"/>
        <circle cx="12.9" cy="12.9" r="12.9" transform="translate(227.05 208.2)" fill="#cc0" stroke="#09242d" stroke-width=".5"/>
        <circle cx="12.9" cy="12.9" r="12.9" transform="translate(227.05 208.2)" fill="none" stroke="#09242d" stroke-linecap="round" stroke-linejoin="round" stroke-miterlimit="10" stroke-width="4"/>
        <path d="M304.45 232.15h8.95v9.35h-8.95z" fill="#245b34" stroke="#09242d" stroke-width=".5"/>
        <path d="M304.45 232.15h8.95v9.35h-8.95z" fill="none" stroke="#09242d" stroke-linecap="round" stroke-linejoin="round" stroke-miterlimit="10" stroke-width="4"/>
        <path d="M304.45 203h8.95v9.35h-8.95z" fill="#245b34" stroke="#09242d" stroke-width=".5"/>
        <path d="M304.45 203h8.95v9.35h-8.95z" fill="none" stroke="#09242d" stroke-linecap="round" stroke-linejoin="round" stroke-miterlimit="10" stroke-width="4"/>
        <path d="M227.55 223.85l20.35-12.5" fill="none" stroke="#09242d" stroke-linecap="round" stroke-linejoin="round" stroke-miterlimit="10" stroke-width="4"/>
        <path d="M232.5 230.85l20.3-12.5" fill="none" stroke="#09242d" stroke-linecap="round" stroke-linejoin="round" stroke-miterlimit="10" stroke-width="4"/>
        <path d="M440.4 171H190.2a8.365 8.365 0 0 1-8.35-8.35V136.9a8.365 8.365 0 0 1 8.35-8.35h250.2a8.365 8.365 0 0 1 8.35 8.35v25.75a8.365 8.365 0 0 1-8.35 8.35z" fill="#ff9e03" stroke="#09242d" stroke-width=".5"/>
        <path d="M440.4 171H190.2a8.365 8.365 0 0 1-8.35-8.35V136.9a8.365 8.365 0 0 1 8.35-8.35h250.2a8.365 8.365 0 0 1 8.35 8.35v25.75a8.365 8.365 0 0 1-8.35 8.35z" fill="none" stroke="#09242d" stroke-linecap="round" stroke-linejoin="round" stroke-miterlimit="10" stroke-width="4"/>
        <path d="M195.95 150.35h235.7" fill="none" stroke="#09242d" stroke-linecap="round" stroke-linejoin="round" stroke-miterlimit="10" stroke-width="5"/>
        <path d="M431.25 128.55v8.55" fill="none" stroke="#09242d" stroke-linejoin="round" stroke-miterlimit="10" stroke-width="1.5"/>
        <path d="M408.05 128.55v8.55" fill="none" stroke="#09242d" stroke-linejoin="round" stroke-miterlimit="10" stroke-width="1.5"/>
        <path d="M414.15 128.55V133" fill="none" stroke="#09242d" stroke-linejoin="round" stroke-miterlimit="10" stroke-width="1.5"/>
        <path d="M425.35 128.55V133" fill="none" stroke="#09242d" stroke-linejoin="round" stroke-miterlimit="10" stroke-width="1.5"/>
        <path d="M419.75 128.55v6.2" fill="none" stroke="#09242d" stroke-linejoin="round" stroke-miterlimit="10" stroke-width="1.5"/>
        <path d="M384.9 128.55v8.55" fill="none" stroke="#09242d" stroke-linejoin="round" stroke-miterlimit="10" stroke-width="1.5"/>
        <path d="M391 128.55V133" fill="none" stroke="#09242d" stroke-linejoin="round" stroke-miterlimit="10" stroke-width="1.5"/>
        <path d="M402.15 128.55V133" fill="none" stroke="#09242d" stroke-linejoin="round" stroke-miterlimit="10" stroke-width="1.5"/>
        <path d="M396.55 128.55v6.2" fill="none" stroke="#09242d" stroke-linejoin="round" stroke-miterlimit="10" stroke-width="1.5"/>
        <path d="M361.7 128.55v8.55" fill="none" stroke="#09242d" stroke-linejoin="round" stroke-miterlimit="10" stroke-width="1.5"/>
        <path d="M367.8 128.55V133" fill="none" stroke="#09242d" stroke-linejoin="round" stroke-miterlimit="10" stroke-width="1.5"/>
        <path d="M378.95 128.55V133" fill="none" stroke="#09242d" stroke-linejoin="round" stroke-miterlimit="10" stroke-width="1.5"/>
        <path d="M373.35 128.55v6.2" fill="none" stroke="#09242d" stroke-linejoin="round" stroke-miterlimit="10" stroke-width="1.5"/>
        <path d="M338.5 128.55v8.55" fill="none" stroke="#09242d" stroke-linejoin="round" stroke-miterlimit="10" stroke-width="1.5"/>
        <path d="M344.6 128.55V133" fill="none" stroke="#09242d" stroke-linejoin="round" stroke-miterlimit="10" stroke-width="1.5"/>
        <path d="M355.75 128.55V133" fill="none" stroke="#09242d" stroke-linejoin="round" stroke-miterlimit="10" stroke-width="1.5"/>
        <path d="M350.15 128.55v6.2" fill="none" stroke="#09242d" stroke-linejoin="round" stroke-miterlimit="10" stroke-width="1.5"/>
        <path d="M315.3 128.55v8.55" fill="none" stroke="#09242d" stroke-linejoin="round" stroke-miterlimit="10" stroke-width="1.5"/>
        <path d="M321.4 128.55V133" fill="none" stroke="#09242d" stroke-linejoin="round" stroke-miterlimit="10" stroke-width="1.5"/>
        <path d="M332.55 128.55V133" fill="none" stroke="#09242d" stroke-linejoin="round" stroke-miterlimit="10" stroke-width="1.5"/>
        <path d="M327 128.55v6.2" fill="none" stroke="#09242d" stroke-linejoin="round" stroke-miterlimit="10" stroke-width="1.5"/>
        <path d="M292.1 128.55v8.55" fill="none" stroke="#09242d" stroke-linejoin="round" stroke-miterlimit="10" stroke-width="1.5"/>
        <path d="M298.2 128.55V133" fill="none" stroke="#09242d" stroke-linejoin="round" stroke-miterlimit="10" stroke-width="1.5"/>
        <path d="M309.35 128.55V133" fill="none" stroke="#09242d" stroke-linejoin="round" stroke-miterlimit="10" stroke-width="1.5"/>
        <path d="M303.8 128.55v6.2" fill="none" stroke="#09242d" stroke-linejoin="round" stroke-miterlimit="10" stroke-width="1.5"/>
        <path d="M268.9 128.55v8.55" fill="none" stroke="#09242d" stroke-linejoin="round" stroke-miterlimit="10" stroke-width="1.5"/>
        <path d="M275 128.55V133" fill="none" stroke="#09242d" stroke-linejoin="round" stroke-miterlimit="10" stroke-width="1.5"/>
        <path d="M286.15 128.55V133" fill="none" stroke="#09242d" stroke-linejoin="round" stroke-miterlimit="10" stroke-width="1.5"/>
        <path d="M280.6 128.55v6.2" fill="none" stroke="#09242d" stroke-linejoin="round" stroke-miterlimit="10" stroke-width="1.5"/>
        <path d="M245.7 128.55v8.55" fill="none" stroke="#09242d" stroke-linejoin="round" stroke-miterlimit="10" stroke-width="1.5"/>
        <path d="M251.8 128.55V133" fill="none" stroke="#09242d" stroke-linejoin="round" stroke-miterlimit="10" stroke-width="1.5"/>
        <path d="M263 128.55V133" fill="none" stroke="#09242d" stroke-linejoin="round" stroke-miterlimit="10" stroke-width="1.5"/>
        <path d="M257.4 128.55v6.2" fill="none" stroke="#09242d" stroke-linejoin="round" stroke-miterlimit="10" stroke-width="1.5"/>
        <path d="M222.5 128.55v8.55" fill="none" stroke="#09242d" stroke-linejoin="round" stroke-miterlimit="10" stroke-width="1.5"/>
        <path d="M228.6 128.55V133" fill="none" stroke="#09242d" stroke-linejoin="round" stroke-miterlimit="10" stroke-width="1.5"/>
        <path d="M239.8 128.55V133" fill="none" stroke="#09242d" stroke-linejoin="round" stroke-miterlimit="10" stroke-width="1.5"/>
        <path d="M234.2 128.55v6.2" fill="none" stroke="#09242d" stroke-linejoin="round" stroke-miterlimit="10" stroke-width="1.5"/>
        <path d="M199.3 128.55v8.55" fill="none" stroke="#09242d" stroke-linejoin="round" stroke-miterlimit="10" stroke-width="1.5"/>
        <path d="M205.4 128.55V133" fill="none" stroke="#09242d" stroke-linejoin="round" stroke-miterlimit="10" stroke-width="1.5"/>
        <path d="M216.6 128.55V133" fill="none" stroke="#09242d" stroke-linejoin="round" stroke-miterlimit="10" stroke-width="1.5"/>
        <path d="M211 128.55v6.2" fill="none" stroke="#09242d" stroke-linejoin="round" stroke-miterlimit="10" stroke-width="1.5"/>
        <path d="M444.75 227.2l-175.9 122.1a3.005 3.005 0 0 0 1.65 5.5h176.95a2.006 2.006 0 0 0 2-2V229.7a3.035 3.035 0 0 0-4.7-2.5zM342.7 329.9l81.8-59.15v59.15z" fill="#ff9e03" stroke="#09242d" stroke-width=".5"/>
        <path d="M444.75 227.2l-175.9 122.1a3.005 3.005 0 0 0 1.65 5.5h176.95a2.006 2.006 0 0 0 2-2V229.7a3.035 3.035 0 0 0-4.7-2.5zM342.7 329.9l81.8-59.15v59.15z" fill="none" stroke="#09242d" stroke-linecap="round" stroke-linejoin="round" stroke-miterlimit="10" stroke-width="4"/>
        <path d="M438.9 354.7v-8.25" fill="none" stroke="#09242d" stroke-linejoin="round" stroke-miterlimit="10" stroke-width="1.5"/>
        <path d="M416.4 354.7v-8.25" fill="none" stroke="#09242d" stroke-linejoin="round" stroke-miterlimit="10" stroke-width="1.5"/>
        <path d="M422.3 354.7v-4.3" fill="none" stroke="#09242d" stroke-linejoin="round" stroke-miterlimit="10" stroke-width="1.5"/>
        <path d="M433.15 354.7v-4.3" fill="none" stroke="#09242d" stroke-linejoin="round" stroke-miterlimit="10" stroke-width="1.5"/>
        <path d="M427.7 354.7v-6" fill="none" stroke="#09242d" stroke-linejoin="round" stroke-miterlimit="10" stroke-width="1.5"/>
        <path d="M393.9 354.7v-8.25" fill="none" stroke="#09242d" stroke-linejoin="round" stroke-miterlimit="10" stroke-width="1.5"/>
        <path d="M399.8 354.7v-4.3" fill="none" stroke="#09242d" stroke-linejoin="round" stroke-miterlimit="10" stroke-width="1.5"/>
        <path d="M410.65 354.7v-4.3" fill="none" stroke="#09242d" stroke-linejoin="round" stroke-miterlimit="10" stroke-width="1.5"/>
        <path d="M405.2 354.7v-6" fill="none" stroke="#09242d" stroke-linejoin="round" stroke-miterlimit="10" stroke-width="1.5"/>
        <path d="M371.4 354.7v-8.25" fill="none" stroke="#09242d" stroke-linejoin="round" stroke-miterlimit="10" stroke-width="1.5"/>
        <path d="M377.3 354.7v-4.3" fill="none" stroke="#09242d" stroke-linejoin="round" stroke-miterlimit="10" stroke-width="1.5"/>
        <path d="M388.15 354.7v-4.3" fill="none" stroke="#09242d" stroke-linejoin="round" stroke-miterlimit="10" stroke-width="1.5"/>
        <path d="M382.7 354.7v-6" fill="none" stroke="#09242d" stroke-linejoin="round" stroke-miterlimit="10" stroke-width="1.5"/>
        <path d="M348.9 354.7v-8.25" fill="none" stroke="#09242d" stroke-linejoin="round" stroke-miterlimit="10" stroke-width="1.5"/>
        <path d="M354.8 354.7v-4.3" fill="none" stroke="#09242d" stroke-linejoin="round" stroke-miterlimit="10" stroke-width="1.5"/>
        <path d="M365.65 354.7v-4.3" fill="none" stroke="#09242d" stroke-linejoin="round" stroke-miterlimit="10" stroke-width="1.5"/>
        <path d="M360.2 354.7v-6" fill="none" stroke="#09242d" stroke-linejoin="round" stroke-miterlimit="10" stroke-width="1.5"/>
        <path d="M326.4 354.7v-8.25" fill="none" stroke="#09242d" stroke-linejoin="round" stroke-miterlimit="10" stroke-width="1.5"/>
        <path d="M332.3 354.7v-4.3" fill="none" stroke="#09242d" stroke-linejoin="round" stroke-miterlimit="10" stroke-width="1.5"/>
        <path d="M343.15 354.7v-4.3" fill="none" stroke="#09242d" stroke-linejoin="round" stroke-miterlimit="10" stroke-width="1.5"/>
        <path d="M337.7 354.7v-6" fill="none" stroke="#09242d" stroke-linejoin="round" stroke-miterlimit="10" stroke-width="1.5"/>
        <path d="M303.9 354.7v-8.25" fill="none" stroke="#09242d" stroke-linejoin="round" stroke-miterlimit="10" stroke-width="1.5"/>
        <path d="M309.8 354.7v-4.3" fill="none" stroke="#09242d" stroke-linejoin="round" stroke-miterlimit="10" stroke-width="1.5"/>
        <path d="M320.65 354.7v-4.3" fill="none" stroke="#09242d" stroke-linejoin="round" stroke-miterlimit="10" stroke-width="1.5"/>
        <path d="M315.2 354.7v-6" fill="none" stroke="#09242d" stroke-linejoin="round" stroke-miterlimit="10" stroke-width="1.5"/>
        <path d="M281.4 354.7v-8.25" fill="none" stroke="#09242d" stroke-linejoin="round" stroke-miterlimit="10" stroke-width="1.5"/>
        <path d="M287.3 354.7v-4.3" fill="none" stroke="#09242d" stroke-linejoin="round" stroke-miterlimit="10" stroke-width="1.5"/>
        <path d="M298.15 354.7v-4.3" fill="none" stroke="#09242d" stroke-linejoin="round" stroke-miterlimit="10" stroke-width="1.5"/>
        <path d="M292.7 354.7v-6" fill="none" stroke="#09242d" stroke-linejoin="round" stroke-miterlimit="10" stroke-width="1.5"/>
        <path d="M449 254.6h-8.3" fill="none" stroke="#09242d" stroke-linejoin="round" stroke-miterlimit="10" stroke-width="1.5"/>
        <path d="M449 248.65h-4.35" fill="none" stroke="#09242d" stroke-linejoin="round" stroke-miterlimit="10" stroke-width="1.5"/>
        <path d="M449 237.85h-4.35" fill="none" stroke="#09242d" stroke-linejoin="round" stroke-miterlimit="10" stroke-width="1.5"/>
        <path d="M449 243.25h-6.05" fill="none" stroke="#09242d" stroke-linejoin="round" stroke-miterlimit="10" stroke-width="1.5"/>
        <path d="M449 277.1h-8.3" fill="none" stroke="#09242d" stroke-linejoin="round" stroke-miterlimit="10" stroke-width="1.5"/>
        <path d="M449 271.15h-4.35" fill="none" stroke="#09242d" stroke-linejoin="round" stroke-miterlimit="10" stroke-width="1.5"/>
        <path d="M449 260.35h-4.35" fill="none" stroke="#09242d" stroke-linejoin="round" stroke-miterlimit="10" stroke-width="1.5"/>
        <path d="M449 265.75h-6.05" fill="none" stroke="#09242d" stroke-linejoin="round" stroke-miterlimit="10" stroke-width="1.5"/>
        <path d="M449 299.6h-8.3" fill="none" stroke="#09242d" stroke-linejoin="round" stroke-miterlimit="10" stroke-width="1.5"/>
        <path d="M449 293.65h-4.35" fill="none" stroke="#09242d" stroke-linejoin="round" stroke-miterlimit="10" stroke-width="1.5"/>
        <path d="M449 282.85h-4.35" fill="none" stroke="#09242d" stroke-linejoin="round" stroke-miterlimit="10" stroke-width="1.5"/>
        <path d="M449 288.25h-6.05" fill="none" stroke="#09242d" stroke-linejoin="round" stroke-miterlimit="10" stroke-width="1.5"/>
        <path d="M449 322.1h-8.3" fill="none" stroke="#09242d" stroke-linejoin="round" stroke-miterlimit="10" stroke-width="1.5"/>
        <path d="M449 316.15h-4.35" fill="none" stroke="#09242d" stroke-linejoin="round" stroke-miterlimit="10" stroke-width="1.5"/>
        <path d="M449 305.35h-4.35" fill="none" stroke="#09242d" stroke-linejoin="round" stroke-miterlimit="10" stroke-width="1.5"/>
        <path d="M449 310.75h-6.05" fill="none" stroke="#09242d" stroke-linejoin="round" stroke-miterlimit="10" stroke-width="1.5"/>
        <path d="M449 344.6h-8.3" fill="none" stroke="#09242d" stroke-linejoin="round" stroke-miterlimit="10" stroke-width="1.5"/>
        <path d="M449 338.65h-4.35" fill="none" stroke="#09242d" stroke-linejoin="round" stroke-miterlimit="10" stroke-width="1.5"/>
        <path d="M449 327.85h-4.35" fill="none" stroke="#09242d" stroke-linejoin="round" stroke-miterlimit="10" stroke-width="1.5"/>
        <path d="M449 333.25h-6.05" fill="none" stroke="#09242d" stroke-linejoin="round" stroke-miterlimit="10" stroke-width="1.5"/>
        <path d="M263.2 313.2h-70.55a5.356 5.356 0 0 1-5.35-5.35v-27.8a5.356 5.356 0 0 1 5.35-5.35h70.6a5.356 5.356 0 0 1 5.35 5.35v27.8a5.432 5.432 0 0 1-5.4 5.35z" fill="#fff" stroke="#09242d" stroke-width=".5"/>
        <path d="M249.8 313.2h-52a5.356 5.356 0 0 1-5.35-5.35v-27.8a5.356 5.356 0 0 1 5.35-5.35h52a5.356 5.356 0 0 1 5.35 5.35v27.8a5.356 5.356 0 0 1-5.35 5.35z" fill="#bfbfbf" stroke="#09242d" stroke-width=".5"/>
        <path d="M263.2 313.2h-70.55a5.356 5.356 0 0 1-5.35-5.35v-27.8a5.356 5.356 0 0 1 5.35-5.35h70.6a5.356 5.356 0 0 1 5.35 5.35v27.8a5.432 5.432 0 0 1-5.4 5.35z" fill="none" stroke="#09242d" stroke-linecap="round" stroke-linejoin="round" stroke-miterlimit="10" stroke-width="4"/>
        <path d="M247.4 316.35h-47.35a2.774 2.774 0 0 1-2.75-2.75v-39.85a2.774 2.774 0 0 1 2.75-2.75h47.35a2.774 2.774 0 0 1 2.75 2.75v39.85a2.742 2.742 0 0 1-2.75 2.75z" fill="#06a0ff" stroke="#09242d" stroke-width=".5"/>
        <path d="M247.4 316.35h-47.35a2.774 2.774 0 0 1-2.75-2.75v-.65a2.774 2.774 0 0 1 2.75-2.75h47.35a2.774 2.774 0 0 1 2.75 2.75v.65a2.742 2.742 0 0 1-2.75 2.75z" fill="#06a0ff" stroke="#09242d" stroke-width=".5" opacity=".27"/>
        <path d="M247.4 277.8h-47.35a2.774 2.774 0 0 1-2.75-2.75v-.65a2.774 2.774 0 0 1 2.75-2.75h47.35a2.774 2.774 0 0 1 2.75 2.75v.65a2.742 2.742 0 0 1-2.75 2.75z" fill="#06a0ff" stroke="#09242d" stroke-width=".5" opacity=".38"/>
        <path d="M247.4 316.35h-47.35a2.774 2.774 0 0 1-2.75-2.75v-39.85a2.774 2.774 0 0 1 2.75-2.75h47.35a2.774 2.774 0 0 1 2.75 2.75v39.85a2.742 2.742 0 0 1-2.75 2.75z" fill="none" stroke="#09242d" stroke-linecap="round" stroke-linejoin="round" stroke-miterlimit="10" stroke-width="4"/>
        <path d="M208 285.15h27.5" fill="none" stroke="#09242d" stroke-linecap="round" stroke-linejoin="round" stroke-miterlimit="10" stroke-width="4" opacity=".58"/>
        <path d="M208 293.95h11.5" fill="none" stroke="#09242d" stroke-linecap="round" stroke-linejoin="round" stroke-miterlimit="10" stroke-width="4" opacity=".58"/>
      </g>
    </g>
  </symbol>
  <symbol id="icon-peep-sign-up" viewBox="0 0 240 324">
    <title>Peep Sign Up</title>
    <g class="nc-icon-wrapper">
      <g id="Introduction" stroke="none" stroke-width="1" fill="none" fill-rule="evenodd">
        <g id="variations" transform="translate(-2766 -110)">
          <g id="images" transform="translate(126 110)">
            <g id="a-person/bust" transform="translate(2640)">
              <g id="body/Device" transform="translate(31.056 135.053)">
                <path d="M157.124 62.333c-.664-1.823.305-3.641.843-5.405 1.91-6.117 3.995-12.234 6.946-17.938 1.117-1.908-.721-4.25-2.852-3.711-3.647.511-7.409.104-11.062-.121-1.337-3.459-4.903-4.894-7.71-6.885-3.185-1.99-6.284-4.273-9.596-6.017-.185-1.647-2.182-2.056-3.403-.877-3.354-2.087-7.375-1.7-10.97-3.067-2.732-4.418-2.937-9.062-3.66-13.324-.316-1.858.019-3.65-1.25-5.306-4.262-5.997-21.104-8.597-27.313-5.044-3.342-2.085-3.423 1.692-3.954 4.023-.59 1.166-.91 2.487-.81 3.878-3.59 7.502-11.805 10.894-19.16 13.641-.924-.888-2.243-.776-3.12-.04-6.377 1.386-12.565 3.823-17.907 7.63-6.07 1.775-10.344 6.713-13.434 12.008-.341.558-.421 1.128-.322 1.65-9.505 13.938-14.04 30.624-14.678 47.477-6.112 3.67 2.905 36.635 5.004 43.48.002-.002.004-.002.007-.003 1.361 2.411 2.908 9.294 6.316 8.761 2.338 2.645 6.063 2.125 9.236 2.328-.517 1.983-.263 4.252.352 6.211.728 2.333 4.297 2.412 4.803-.131 31.594 6.14 64.01 1.24 95.96 2.163 9.237.065 18.474.351 27.69 1.01 1.297.092 2.612-1.235 2.524-2.527-1.981-21.087-3.842-48.827-6.057-69.707-.526-4.762-.941-9.576-2.423-14.157z" id="&#x1F3A8;-Background" fill="#FFF"/>
                <path d="M83.664-4.06c.09-.247.46-.215.467.063.146 5.93-1.33 13.174-6.072 17.18-2.435 2.055-5.653 2.996-8.61 4.077l-.333.123-5.222 1.946c-1.385.516-2.879 1.31-4.102.581.99 2.456 1.82 4.98 3.026 7.347 1.501 2.946 3.316 5.642 5.537 8.094 8.798 9.713 22.723 12.676 35.219 9.83 6.434-1.466 12.696-4.243 17.086-9.31 3.336-3.85 5.253-9.019 5.704-14.117-.132.022-.27.02-.412-.01-1.581-.346-3.177-1.193-4.569-2.025l-.134-.08c-1.338-.806-2.733-1.73-3.694-2.983-.636-.829-1.288-2.596-1.955-5.3-.273-1.525-.529-4.563-.485-6.105.004-.145.649-.23.718-.08.596 1.309.788 4.184 1.248 5.546l.093.272c.491 1.422.913 3.153 1.931 4.303 1.912 2.16 4.797 3.073 7.373 4.156.184-2.44 4.08-2.383 4.03.161-.002.138-.008.276-.013.413.307.17.603.363.879.55l.27.182c1.02.694 2.047 1.354 3.133 1.943 2.103 1.14 4.33 2.044 6.484 3.079a33.024 33.024 0 0 1 6.121 3.788 31.487 31.487 0 0 1 2.564 2.241l.221.218c.774.77 1.78 1.633 2.222 2.646.097.224.584.743.848.76 4.093.269 8.178.648 12.246 1.217 1.053.147 1.47.69 1.08 1.568-1.337 3.017-6.575 15.069-7.967 18.303.162 2.376-.057 5.173.09 7.55.214 3.468.495 6.935.831 10.394 1.204 12.372 3.03 24.683 4.68 37 .825 6.166 1.578 12.34 2.32 18.514a226.37 226.37 0 0 1 1.216 13.298l.07 1.16c.097 1.46.32 2.853-.582 4.105-.41.568-1.344.888-1.882.243-.676-.812-.928-1.418-.993-2.484-.049-.815-.06-1.635-.098-2.452-.08-1.77-.181-3.54-.3-5.308-.236-3.535-.505-7.07-.817-10.598-1.094-12.375-3.172-24.657-4.555-37.002a269.29 269.29 0 0 1-1.455-18.717c-.131-3.125-.179-6.25-.148-9.377.012-1.169.067-2.331.147-3.492a342.6 342.6 0 0 1-6.528 13.975l-.54 1.09c-1.443 2.908-2.925 5.828-4.66 8.57l-.298.467c-.703 1.114-1.663 2.87-2.944 3.221-.893.245-1.984.073-2.899.055-.908-.017-1.817-.02-2.725-.057a13.307 13.307 0 0 1-2.973-.44 3.369 3.369 0 0 1-.46-.153c-.99 1.622-2.675 2.858-4.397 3.578-1.38.577-2.825.973-4.273 1.339l-.511.128c-1.552.387-3.328.57-4.204 2.07l-.203.348c-.651 1.106-1.276 2.078-2.353 2.871-1.16.854-2.533 1.391-3.902 1.81-1.401.427-2.835.755-4.258 1.105l-.388.097c-.94.235-1.887.45-2.82.707-.4.109-.805.221-1.195.356-.458.157-.79.403-1.152.67-.324 1.134-1.711 1.75-2.852 1.67-.598-.04-1.136-.244-1.625-.542-.853.726-1.792 1.377-2.662 2.05a389.947 389.947 0 0 1-11.341 8.453 296.625 296.625 0 0 1-14.022 9.431 372.81 372.81 0 0 1-6.001 3.738l.215.08.427.162c1.01.377 2.135.986 2.33 2.164.155.935-.366 1.58-1.289 1.693-1.096.136-1.95-.639-2.632-1.379-.301-.326-.638-.629-.927-.965a2.087 2.087 0 0 1-.288-.46 128.179 128.179 0 0 1-6.048 3.368l-.512.264c-5.07 2.593-10.004 5.435-15.117 7.955-1.334.657-2.96 1.368-4.655 1.853.45 1.744.443 3.659.455 5.429.01 1.725-2.73 1.717-2.672 0l.028-.829c.05-1.394.131-2.841.462-4.198-4.994.829-9.983-.972-10.912-1.513-1.025-.596-1.956-1.55-2.73-2.436-1.658-1.895-2.808-4.167-3.829-6.452-2.185-4.894-3.734-10.125-4.866-15.357-4.174-19.29-2.379-39.934 4.4-58.425a111.164 111.164 0 0 1 5.984-13.492l.284-.538c2.287-4.307 4.828-8.596 8.056-12.26 3.362-3.818 7.51-6.786 12.025-9.09a64.317 64.317 0 0 1 6.789-2.963c.372-.138.747-.263 1.122-.382 2.416-1.54 5.347-3.013 8.279-2.955.2.003.36.079.481.193.141.024.283.054.424.096.313.09.643.433.598.785l-.015.117a.96.96 0 0 1-.037.166c.105.016.208.04.309.075 2.805-.792 5.565-2.004 8.303-2.982l.623-.22c2.293-.804 4.645-1.592 6.526-3.183 1.871-1.582 3.279-3.632 4.296-5.848 1.253-2.73 1.814-5.688 2.843-8.491zm56.168 143.997c.555-.413 1.212.067 1.42.578.682 1.68.345 4.289-.617 5.773-.997 1.539-3.382.931-3.44-.932-.06-1.943 1.069-4.251 2.637-5.419zm5.737-46.367c.05-.219.389-.217.44 0 .462 1.97.451 4.092.587 6.112l.016.224c.163 2.228.3 4.462.397 6.694a889.584 889.584 0 0 0 1.087 19.695c.456-.255.926-.478 1.412-.675.73-.295 1.44-.328 2.223-.32.955.01 1.673.85 1.547 1.784-.138 1.019-1.034 1.455-1.965 1.31-1.031-.162-2.067-.412-3.107-.515.115 1.681.235 3.362.362 5.042.169 2.225.388 4.447.542 6.672l.047.638c.621-.323 1.28-.488 2.027-.692l.195-.054c1.084-.312 2.244-.743 3.248-.013.675.49.81 1.298.251 1.945-.848.981-2.102.79-3.273.74l-.63-.022c-.593-.024-1.14-.062-1.69-.211.102 1.45.155 2.904-.023 4.333-.096.772-1.112.975-1.381.187-.703-2.059-.848-4.278-1.105-6.434-.24-2.014-.386-4.042-.543-6.065l-.048-.606c-.353-4.45-.636-8.902-.843-13.361a379.23 379.23 0 0 1-.38-13.378c-.023-2.027.01-4.06.09-6.086l.025-.608c.091-2.084.028-4.295.492-6.336zm-92.836 46.696c.027-.285.255-.639.594-.595.313.04.635.022.944.073.408.068.736.309 1.116.46.616.247 1.289.375 1.921.577 1.187.378 1.834 1.629 1.343 2.796-.517 1.227-1.816 1.506-2.939.99-.885-.405-1.544-1.054-2.139-1.805l-.169-.214c-.256-.322-.547-.682-.654-1.073-.105-.381-.053-.822-.017-1.21zm57.676-5.77c1.478-.208 2.741.297 4.11.774l.11.039c1.393.48 3.425.813 4.139 2.239.43.86.096 2.001-.917 2.256-1.605.402-3.044-.77-4.371-1.56l-.07-.042c-1.28-.75-2.602-1.381-3.42-2.676-.218-.345-.03-.967.419-1.03zM58.792 16.86c-.592.133-1.185.25-1.776.363-2.251 1.207-4.436 2.46-6.76 3.534-2.466 1.142-4.923 2.32-7.266 3.7-4.732 2.79-8.633 6.415-11.856 10.86-5.569 7.677-9.71 16.53-12.675 25.514a107.288 107.288 0 0 0-2.046 6.995c1.066-.986 2.328-1.592 3.744-2.112.6-.22 1.346.153 1.65.672.137.234.214.464.2.738-.032.604-.425 1.29-1.073 1.41-1.512.279-2.983.822-4.44 1.3a.68.68 0 0 1-.563-.041 104.571 104.571 0 0 0-2.674 18.69 99.663 99.663 0 0 0 .487 16.027c.453-.204.897-.395 1.394-.51.645-.15 1.28-.333 1.909-.54 1.815-.595 2.643 2.403.788 2.86-.69.17-1.386.311-2.09.415-.613.09-1.155.05-1.734-.044a100.463 100.463 0 0 0 1.814 9.869l.17.711c.998 4.152 2.162 8.342 3.844 12.265.826 1.924 1.919 3.752 3.268 5.357.663.789 1.399 1.465 2.201 2.106.668.534 2.94 1.69 5.628 1.69 2.69 0 3.418-.254 4.775-.721 2.683-.924 5.23-2.399 7.747-3.713l.26-.135c1.113-.576 2.222-1.16 3.327-1.75-.14-1.127.105-2.075.692-3.116.635-1.127 2.208-.566 2.325.587l.004.044c.018.26.061.524.115.788 7.393-4.05 14.629-8.385 21.75-12.902a423.902 423.902 0 0 0 13.596-8.991 308.492 308.492 0 0 0 10.077-7.247c.475-.355.94-.728 1.415-1.085a24.276 24.276 0 0 1-.337-.432c-1.775-2.325-2.927-5.096-3.5-7.955-.347-1.725-.514-3.516-.565-5.275l-.022-.764c-.036-1.289-.045-2.637.193-3.886-.323.178-.653.352-.982.538-1.18.67-2.362 1.337-3.545 2a284.806 284.806 0 0 1-7.153 3.906c-4.3 2.253-8.64 4.397-13.099 6.317l-2.17.936c-3.764 1.62-7.56 3.21-11.474 4.415a97.19 97.19 0 0 1-6.673 1.777l.906 1.062c.614.72.625 1.752-.16 2.358-.771.596-1.807.348-2.32-.443l-.938-1.442a2.592 2.592 0 0 1-.378-.901c-1.032.216-2.066.423-3.103.624l-1.961.374c-2.8.54-5.514 1.611-8.017 2.981-.87.476-1.112-.449-.19-1.094 2.695-1.885 5.839-2.951 9.083-3.846l.159-.044c1.19-.326 2.378-.666 3.563-1.018a5.021 5.021 0 0 1-.19-1.501c.033-1.203.14-2.41.203-3.61.134-2.522.305-5.036.505-7.553.077-.97.163-1.943.262-2.914-.636-.341-1.184-.794-1.893-1.016l-.12-.035c-.757-.205-.501-1.182.172-1.265a5.432 5.432 0 0 1 1.818.088c.093.02.181.043.265.068.111-.9.233-1.797.373-2.69.368-2.358.628-4.842 1.395-7.108.057-.168.306-.228.398-.052 1.115 2.122 1.154 4.725 1.28 7.088l.015.282c.148 2.578.157 5.182.109 7.763-.049 2.66-.14 5.314-.26 7.973-.047 1.07-.045 2.18-.228 3.204 6.636-2.158 13.154-4.741 19.402-7.8 4.407-2.157 8.776-4.4 13.096-6.728 2.164-1.167 4.338-2.314 6.5-3.485.758-.41 1.514-.822 2.271-1.234l1.135-.619c1.062-.58 1.948-1.156 3.185-1.197.368-.012.699.16.934.422.664-.471 1.432-.76 2.239-.754a153.008 153.008 0 0 1 3.726-4.967l.947-1.205c1.638-2.078 3.373-4.188 5.462-5.77.933-.705 1.958-1.235 3.027-1.672a1.606 1.606 0 0 1-.717-.389c-1.022-.947-1.162-2.707-1.37-4.03-.215-1.37-.132-2.598.08-3.964.083-.531.963-.642 1.177-.154.453 1.028.932 2.014 1.343 3.054l.122.314c.441 1.17 1.382 2.403 1.32 3.673a1.626 1.626 0 0 1-.313.895c.897-.298 1.808-.564 2.705-.841 2.822-.873 5.654-1.72 8.53-2.397.766-.18 1.535-.347 2.308-.5.405-1.923.995-3.81 1.69-5.663-.658-.338-1.085-.903-1.652-1.407-.53-.47-.895-1.045-1.348-1.586-.412-.492-.18-1.381.56-1.353l.21.01c.768.035 1.51.114 2.207.472l.247.128c.34.177.713.38 1.044.618.433-.997.884-1.985 1.34-2.963l.59-1.264c1.532-3.291 3.06-6.708 4.984-9.772.855-1.363 1.993-2.213 3.627-2.345 1.682-.135 3.43.04 5.115.1 1.953.07 3.905.153 5.856.255-.5-.524-.956-1.107-1.459-1.61a30.196 30.196 0 0 0-2.64-2.355c-1.832-1.446-3.847-2.637-5.94-3.663-2.092-1.026-4.247-1.92-6.212-3.188-1.243-.802-2.354-1.812-3.368-2.904-.638 6.888-3.963 13.287-8.958 18.095-5.188 4.993-12.357 7.736-19.37 8.903-7.154 1.19-14.62.754-21.463-1.734a37.743 37.743 0 0 1-9.93-5.413c-.034.2-.073.397-.152.583-.105.25-.234.462-.381.682l-.263.384a9.107 9.107 0 0 1-.524.707c-.456.543-1.102.781-1.798.778-1.333-.004-2.343-1.311-1.984-2.604.226-.813.708-1.302 1.46-1.62.239-.1.481-.185.725-.268l.183-.062c.247-.084.492-.165.745-.212a33.263 33.263 0 0 1-3.942-4.114c-3.724-4.644-7.397-11.147-6.152-17.314.022-.106.117-.173.22-.19.072-.433.302-.851.618-1.133a5.442 5.442 0 0 0-.642-.128zm38.67 106.625c.738-.41 1.5.565.9 1.167l-.895.895c-.83.835-1.638 1.68-2.35 2.63l-.172.233c-.96 1.306-1.982 2.82-3.555 3.308-1.902.59-3.73-1.728-2.628-3.42.962-1.48 2.815-2.038 4.412-2.65 1.511-.578 2.876-1.378 4.288-2.163zm-61.352-6.827c.433-.568 1.563-.269 1.267.534-.961 2.608-1.353 6.164-3.782 7.896-.783.559-2.014.302-2.659-.343-.732-.733-.762-1.766-.343-2.66.512-1.091 1.769-1.882 2.65-2.714l.08-.075c.947-.922 1.973-1.572 2.787-2.638zm101.49 3c.774-.333 2.79-.981 3.387-.214a.44.44 0 0 1 .07.093c.147.255.169.614 0 .867-.695 1.046-1.42 1.828-2.41 2.572l-.111.083c-1.078.792-2.09 1.723-3.403 2.08-1.82.496-3.09-1.783-1.812-3.114 1.03-1.072 2.601-1.629 3.965-2.227l.314-.14zm-73.074-14.9c-.304-.55.318-1.225.88-.88 1.608.982 3.48 1.72 5.284 2.249.73.214 1.39.954 1.335 1.754l-.009.12c-.021.283-.06.563-.24.798-.628.822-1.527 1.139-2.487.652-2.14-1.084-3.605-2.599-4.763-4.692zm46.96-1.666c-.039-.231.13-.41.365-.365 1.358.257 2.612.913 3.778 1.667.626.405 1.229.85 1.853 1.258.77.504 1.059.92 1.173 1.846.075.611-.495 1.169-1.018 1.338-1.425.46-3.058-1.05-4.023-2.03l-.044-.043c-1.01-1.031-1.844-2.25-2.084-3.67zm40.781-1.6c-.31-.837.758-1.53 1.455-1.12.657.387 1.37.708 1.99 1.15.569.408 1.088.89 1.634 1.332l.27.214c1.001.805 2.654 2.797 1.222 3.952-1.363 1.1-3.17-.305-4.084-1.331l-.064-.073c-.526-.608-1.175-1.269-1.557-1.98-.359-.668-.603-1.435-.866-2.145zM138.83 36.765c-1.707.331-2.403 2.439-3.122 3.813-1.696 3.242-3.256 6.543-4.823 9.849-.482 1.017-.952 2.041-1.426 3.064-.029.08-.066.159-.11.237-.97 2.09-1.97 4.168-3.138 6.153 1.069-.2 2.144-.371 3.223-.506-.055-1.016.641-2.376.985-3.232l.029-.072c.429-1.096.879-2.823 1.983-3.392.368-.19.762.048.79.453.084 1.207-1.096 2.588-1.673 3.612a75.9 75.9 0 0 0-1.02 1.871c-.124.236-.228.467-.355.675.556-.06 1.113-.114 1.672-.153l.364-.025c2.07-.137 4.27-.176 6.141.846 1.736.947 2.623 2.97 1.67 4.812-1.188 2.295-3.805 2.599-6.105 2.785-2.874.232-5.754.65-8.608 1.059-2.951.422-5.73 1.51-8.638 2.07-.27.052-.439-.302-.19-.453 2.293-1.396 5.081-2.165 7.645-2.948l.207-.063c1.391-.428 2.75-.916 4.19-1.158a66.124 66.124 0 0 1 4.21-.571l.137-.013c1.55-.13 5.508-.085 5.34-2.383-.11-1.52-2.58-1.783-3.708-1.8-5.171-.084-10.379 1.29-15.293 2.76l-1.097.33c-2.012.605-4.027 1.228-6.001 1.938-2.237.804-4 2.059-5.63 3.776-1.806 1.903-3.556 3.85-5.43 5.69a210.743 210.743 0 0 1-3.585 3.427c-.273.353-.491.737-.642 1.236-.255.841-.197 1.623-.1 2.488.243 2.183.296 4.388.6 6.565.283 2.016.678 4.106 1.515 5.976.33.74.762 1.468 1.253 2.119l.397.515c.173.224.366.47.569.7.298-.364.729-.6 1.23-.541 1.064.125 1.9.095 2.945-.15.809-.189 1.61-.41 2.415-.616 1.58-.403 3.175-.77 4.74-1.233l.268-.08c1.166-.359 2.331-.806 3.302-1.56 1.127-.874 1.473-2.136 2.308-3.227 1.783-2.33 5.635-2.282 8.244-2.92 2.216-.542 4.35-1.398 5.883-3.007l.09-.096c-.068-.287.042-.61.309-.76l.058-.032a.635.635 0 0 1 .326-.08c.142-.209.28-.425.404-.655.103-.19.36-.05.326.137-.02.112-.048.221-.074.33 1.486-.382 3.118-.309 4.626-.308l1.958-.007c.339-.004.844-.021.889-.041l.046-.02c.122-.054-.051.034.034-.08.094-.124.186-.25.277-.378.324-.454.631-.922.932-1.395-3.278.836-6.675 1.356-10.023 1.79-3.591.465-7.23.788-10.854.791-.998.001-.99-1.507 0-1.545 3.837-.147 7.654-.35 11.466-.842a98.293 98.293 0 0 0 5.885-.947 97.74 97.74 0 0 0 2.255-.459l.562-.123c.353-.078 1.349-.19 1.835-.516l.285-.492c-.046-.576-1.51-.499-1.853-.5-.973-.002-1.946.006-2.919.009-1.946.006-3.892-.011-5.838-.027-3.888-.032-7.79-.167-11.676-.001-.943.04-1.438-1.473-.506-1.871 4.115-1.758 8.683-2.14 13.077-2.68 2.31-.284 4.622-.612 6.881-1.187l.559-.142c1.419-.364 2.986-.808 4.18-1.675-1.796-.727-4.028-.643-5.89-.746l-.142-.008c-2.607-.16-5.218-.243-7.83-.247-5.344-.007-10.69.182-16.027.436-.134.006-.162-.205-.032-.234 5.487-1.197 11.063-1.774 16.677-1.863 2.615-.041 5.231-.004 7.844.111l.959.045c2.227.096 4.699.122 6.563 1.467.284.205.434.467.457.744 2.5-4.984 4.808-10.073 7.126-15.127 1.802-3.93 3.536-7.894 5.404-11.793l.605-1.262c.81-1.683 1.639-3.367 2.56-4.99-3.444-.46-6.907-.78-10.373-1.024-3.157-.224-13.46-.718-14.98-.423zm-1.525 54.02c.392-.218.994-.04 1.09.444.073.36.196.761.196 1.13 0 .442-.158.923-.243 1.355-.193.995-.432 1.803-.937 2.689-.317.554-.955.93-1.597.916-.508-.012-.959-.148-1.308-.542-.418-.471-.704-1.165-.475-1.8.6-1.663 1.704-3.32 3.274-4.192zM54 89.126c.92-1.61 3.098-3.049 4.999-2.906 2.854.213 3.437 4.058.673 4.976-1.652.548-3.924-.015-5.37-.917a.859.859 0 0 1-.302-1.153zm-29.336-5.5c-.209-.304.136-.651.447-.583.69.152 1.434.218 2.11.424.691.21 1.36.56 2.046.8 1.436.503 2.97.755 4.36 1.363.555.242.991 1.047.94 1.64l-.013.14c-.03.293-.082.55-.246.82-.443.722-1.319 1.095-2.146.873-1.534-.412-3.033-1.471-4.34-2.351l-.242-.161c-.572-.377-1.186-.77-1.647-1.255-.48-.506-.875-1.138-1.27-1.71zm52.732-5.857c-.177-.636.614-1.057 1.076-.627.921.859 1.885 1.655 2.787 2.536l.06.06c.647.65 1.587 1.902.747 2.743-1.077 1.077-2.577-.522-3.155-1.355-.733-1.056-1.172-2.121-1.515-3.357zm70.522-5.26c-1.367 1.449-3.474 2.114-5.328 2.666-2.199.654-4.465 1.045-6.732 1.366-2.192.31-4.367.588-6.523.944 1.631.02 3.262.032 4.89.061 1.877.034 3.753.075 5.63.13 1.366.04 2.97-.148 4.269.36.234.091.452.218.643.372a162.47 162.47 0 0 0 3.151-5.9zM63.593 58.963c1.427-.454 2.77-1.055 4.282-.9.402.042.69.434.47.82-.717 1.262-1.882 1.975-3.03 2.819l-.1.075a37.102 37.102 0 0 1-3.971 2.553c-2.352 1.32-4.46-2.458-2.084-3.567 1.429-.667 2.93-1.322 4.433-1.8zm25.69-3.28c2.184.143 4.365.24 6.551.33 2.532.102 1.68 4-.434 3.21a267.65 267.65 0 0 0-6.288-2.276c-.641-.22-.59-1.275.13-1.266l.042.001zm-55.991-6.934c.566-.04 1.136.083 1.703.138l.603.059c1.243.124 2.408.276 3.593.782 2.187.934 1.013 4.451-1.183 4.37-1.622-.06-3.01-.757-4.38-1.568-1.198-.71-1.933-1.597-2.741-2.711-.268-.37.105-.783.47-.82.642-.066 1.292-.205 1.935-.25zm109.63-7.183a14.312 14.312 0 0 1-2.613 6.22c-.68.926-1.875.961-2.55 0-.953-1.36-.365-2.918.354-4.225l.212-.382c.322-.574.816-1.41 1.38-1.988l.01-.06c.303-2.364 3.58-1.892 3.207.435zM54.626 27.068c.545-.49 1.547-.343 1.724.455.247 1.118.397 2.377.235 3.511-.087.615-.12 1.306-.362 1.879-.26.616-.76 1.09-1.23 1.553-.94.925-2.923.619-3.175-.838l-.032-.18c-.126-.689-.288-1.426-.1-2.11.141-.515.457-1.04.72-1.52l.054-.1c.525-.978 1.342-1.908 2.166-2.65zm76.499 2.378l.196.002c1.52.03 4.297.4 4.311 2.277.004.443-.324.902-.763 1.004-.908.21-1.495-.327-2.142-.869a6.585 6.585 0 0 0-1.787-1.052c-.692-.276-.647-1.364.185-1.362z" id="&#x1F58D;-Ink" fill="#000"/>
              </g>
              <g id="head/Short-3" transform="translate(78.592 38.043)">
                <path d="M88.4 71.353c-1.325-9.563-4.356-18.847-4.79-28.552l-.777-12.46c-.098-2.595-3.466-3.47-4.753-1.172-2.925-3.244-8.162-2.767-12.157-2.668-23.52.834-45.87 16.742-53.945 38.923-.194.529-.135 1.092.085 1.595-3.764 12.554 9.545 20.638 18.622 26.236 3.682 3.892 8.01 7.127 12.898 9.341a45.237 45.237 0 0 0 18.091 4.263c1.364.031 2.183-1.072 2.281-2.213 1.982-.462 5.373.071 6.421-1.96 11.95-5.193 19.737-18.354 18.023-31.333z" id="&#x1F3A8;-Background" fill="#FFF"/>
                <path d="M82.808 37.442c-.034-.31.413-.32.505-.069.758 2.064 1.543 4.115 2.143 6.231.579 2.04.995 4.126 1.417 6.203.7 3.447 1.302 6.92 1.8 10.403 1.063-.83 2.454-.906 3.764-.26.615.304.85 1.106.703 1.728-.118.499-.263.996-.437 1.482.371.329.687.734.916 1.2.603 1.225.409 2.512-.132 3.682.04.07.082.14.12.214.783 1.521.364 2.884-.208 4.369-.428 1.11-.19 2.361-1.114 3.2a8.499 8.499 0 0 1-1.505 2.86 1.88 1.88 0 0 1-.681.7 31.662 31.662 0 0 1-.567 4.864C88.276 90.5 84.29 96.07 79.355 99.999c-4.828 3.844-10.5 6.141-16.619 6.884-2.97.36-5.947.247-8.893-.268l-.368-.065c-2.719-.494-6.01-1.31-7.89-3.363-.989-1.079-.41-3.454 1.338-3.23.926.119 1.732.267 2.604.61.68.266 1.362.523 2.06.74 1.337.417 2.72.742 4.109.922 2.893.374 5.9.275 8.759-.29 5.2-1.026 10.252-3.393 14.198-6.957 4.588-4.144 7.277-9.506 7.672-15.69.441-6.888-.354-13.941-1.014-20.794-.343-3.564-.78-7.121-1.304-10.663-.513-3.461-.82-6.918-1.2-10.393zM42.21 15.2l.222-.034c8.831-1.344 18.123-1.249 26.424 2.397 1.59.7 3.147 1.542 4.614 2.521 1.05-.11 2.106-.199 3.144-.213 1.305-.017 2.579.661 2.74 1.982 1.223.152 2.349.602 3.07 1.503.28.35.468.756.563 1.18.752.177 1.49.45 2.189.809.85.437 1.34 1.654 1.04 2.555-.07.204-.149.404-.237.598l-.068.146.04.055c.679 1.09.207 2.521-.832 3.172-.78.488-1.65.877-2.546 1.065.074.36.142.72.197 1.087.02.148-.17.253-.254.107.214.667.483 1.367.805 2.101.19.433-.418.818-.65.38-.617-1.166-1-2.362-1.56-3.565a4.352 4.352 0 0 1-1.53-.378 1.695 1.695 0 0 1-.75-.696c-.01.013-.016.028-.027.043-1.667 2.145-4.924 2.897-7.443 3.576-2.704.73-5.472 1.18-8.25 1.511-4.85.577-9.74.685-14.613.909l-.967.046c-1.98 1.738-4.53 2.817-7.145 3.146a12.992 12.992 0 0 1-4.38-.215 4.44 4.44 0 0 1-1.959 1.165c-.133 2.769-1.676 5.39-4.01 6.918l.042.164c.58 2.365.572 4.949-1.506 6.592a5.059 5.059 0 0 1-.912.57l.071.164c1.074 2.51 1.416 5.282-.601 7.364-.818.844-2.255.644-2.868-.324l-.03-.05c-.034-.057-.071-.112-.106-.17a.516.516 0 0 1-.263.26c-.767.33-1.073.087-1.772-.253a10.892 10.892 0 0 0-2.026-.738 11.702 11.702 0 0 0-1.705-.315c-3.605 1.378-5.933 5.605-5.38 9.572.3 2.16 1.486 4.299 3.552 5.195.904.393 1.967.558 2.945.425 1.325-.18 2.343-1.014 3.714-.537.541.188.88.613.909 1.194.048.913-.275 1.598-.82 2.105.961.803 1.737 1.92 2.571 2.81 1.044 1.113 2.102 2.227 3.23 3.254a28.707 28.707 0 0 0 3.398 2.682l.126.083c1.503.98 3.397 1.85 3.47 3.897.023.617-.351 1.183-.858 1.498-1.895 1.175-3.957-.368-5.443-1.498a33.452 33.452 0 0 1-1.738-1.414 2.473 2.473 0 0 1-1.207-.22 8.623 8.623 0 0 1-.8-.406c-.852.214-1.655.026-2.316-.42-.953.234-1.963.262-2.82.074a4.718 4.718 0 0 1-2.06-1.04c-1.204.384-2.542.312-3.73-.417-.711-.437-1.267-1.06-1.569-1.79a1.608 1.608 0 0 1-.26-.831v-.118c-1.035.023-2.072-.332-2.873-1.151a3.978 3.978 0 0 1-1.134-2.645 5.203 5.203 0 0 1-2.72-1.838c-1.2-1.552-1.36-3.469-.743-5.18a3.332 3.332 0 0 1-.108-.277c-.957-1.351-1.589-2.98-1.538-4.614.006-.254.04-.503.091-.75-.942-.501-1.635-1.38-1.71-2.499a3.313 3.313 0 0 1 .827-2.384 4.173 4.173 0 0 1-.315-2.098 4.084 4.084 0 0 1 .727-1.913 2.942 2.942 0 0 1 .034-.592 5.54 5.54 0 0 1-.087-.606c-.18-2.266 1.384-4.249 3.287-5.295.501-.275 1.042-.499 1.583-.689.393-.14.984-.186 1.33-.442-.014-.01.13-.196.155-.295.027-.123.057-.243.072-.368.057-.524.015-1.063.004-1.59-.046-2.388.027-4.787.279-7.162.467-4.405 1.618-8.714 3.862-12.563 1.882-3.225 4.46-5.95 7.415-8.209 5.887-4.498 13.234-6.944 20.497-8.073zM14.928 69.975c-.766-1.842 2.842-1.86 3.796-1.773l.028.003c2.147.214 5.504 1.247 6.382 3.414.364.897-.713 1.87-1.574 1.575-.843-.289-1.316-.91-1.993-1.452a8.684 8.684 0 0 0-.55-.403c.099.316.257.608.478.826l.052.05c1.039.933-.82 2.4-1.509 1.164a3.28 3.28 0 0 1-.4-2.127c.034-.22.094-.422.18-.615-.069-.034-.136-.071-.206-.104l-.123-.058c-.827-.375-4.356-1.849-4.327-.531.003.146-.186.146-.234.031z" id="&#x1F58D;-Ink" fill="#000"/>
              </g>
              <g id="face/Smiling" transform="translate(112.183 77.354)" fill="#000">
                <path d="M30.969 50.92a8.602 8.602 0 0 1-3.614-2.782c-.322-.429-.405-.882-.338-1.297.076-.466.352-.889.728-1.172.377-.285.849-.425 1.305-.353.397.062.791.279 1.104.73l.065.09a5.695 5.695 0 0 0 2.086 1.75 4.7 4.7 0 0 0 2.582.455c1.737-.197 2.935-1.137 4.208-2.413.158-.161.315-.328.474-.496.1-.154.24-.252.394-.304a.862.862 0 0 1 .97.332c.097.144.152.32.135.524-.117 1.323-.808 2.504-1.79 3.43-1.091 1.03-2.537 1.743-3.898 1.993-1.5.275-3.027.078-4.411-.487zm5.119-20.408c1.595.97 4.026 3.232 2.31 5.637-2.02 2.12-4.93-.31-6.363-1.41-1.329-.852-2.822 1.34-1.589 2.335 10.357 7.67 14.56-6.308 6.448-7.703-.893-.153-1.224.84-.806 1.141zm-18.56-8.923c.176-2.19 3.508-2.686 3.84-.52.296 1.94-.053 3.722-.927 5.47-.834 1.668-2.932.89-3.091-.63-.213-2.037.068-2.959.177-4.32zm25.365-.97c.465-.608 1.135-1.024 1.939-.789 2.511.734 1.77 4.3.89 6.036-.48.943-2.029 1.182-2.729.352-1.14-1.354-1.687-4.057-.237-5.39.04-.069.083-.138.137-.208zm-22.487-8.608l.397-.07c1.227-.212 2.752-.416 3.62.571.46.524.619 1.496 0 1.997-1.088.881-2.292.54-3.596.614-1.075.062-2.108.24-3.144.536-2.271.65-4.122 1.835-6.062 3.137-.255.171-.514-.155-.393-.393 1.12-2.194 3.29-3.997 5.464-5.096 1.16-.586 2.43-1.073 3.714-1.296zm20.198-.983l.304.062c3.303.691 7.596 2.071 9.16 5.317.06.46-.003.558-.055.622l-.017.021c-.042.055-.076.13-.274.193a7.693 7.693 0 0 1-.168-.041c-.717-.188-1.284-.447-1.833-.716l-.596-.294c-.691-.339-1.388-.665-2.127-.906a25.041 25.041 0 0 0-4.845-1.07 1.988 1.988 0 0 1-.971-.37 1.46 1.46 0 0 1-.544-.828c-.116-.467-.083-.82.168-1.241.188-.317.457-.536.767-.662a1.8 1.8 0 0 1 1.031-.087z" id="&#x1F58D;-Ink"/>
              </g>
              <g id="accessories/Glasses-2" transform="translate(88.521 88.978)" fill="#000">
                <path d="M78.657 20.175c-2.565 2.651-6.847 3.412-10.26 1.99-8.762-3.662-4.473-15.086 2.285-18.153.844-.21 1.972-.71 3-.824.093-.045.295.087.54-.038 7.452.832 9.15 12.404 4.435 17.025m-28.263.679c-2.877 3.817-8.225 4.995-12.595 3.22-8.633-3.401-5.57-13.53.336-17.502 12.477-4.69 17.629 7.243 12.26 14.282M31.68 12.396l-.024-.01.137-.06-.046.115c-.022-.015-.042-.033-.067-.045M84.596 8.27c-.704.001-1.721.117-2.305.606-1.437-4.851-6.745-9.341-11.36-6.067-3.635 1.17-6.333 3.763-7.866 7.21-2.764-1.644-7.11-.942-9.507 1.233-1.57-5.189-5.433-7.006-10.03-7.274-5.02-.822-10.022 4.054-11.583 7.966-1.298-.148-3.237-.561-4.458.24-7.924-2.079-21.778-3.225-23.389-2.07-1.148.44-1.778 3.151-.174 3.298 1.397-.199-.163-1.987 1.245-2.182 7.505-.465 14.79 1.047 22.216 1.681.663.892 2.805 1.19 3.948.832-1.8 6.636 2.085 11.15 7.907 12.503 9.014 2.071 16.856-5.996 14.5-14.386 2.73-1.36 5.87-1.301 8.845-.585-4.97 18.3 24.492 17.48 19.89-1.772 3.063 1.524 3.728-.926 2.121-1.233" id="&#x1F58D;-Ink"/>
              </g>
            </g>
          </g>
        </g>
      </g>
    </g>
  </symbol>
</svg>