<svg xmlns="http://www.w3.org/2000/svg" style="display: none;">
  <symbol id="icon-toolkit_icon" viewBox="0 0 397.012 242.362">
    <title>toolkit icon</title>
    <g class="nc-icon-wrapper">
      <g transform="translate(-54.438 -126.55)">
        <path d="M71.8 263.5h83.8" fill="none" stroke="#09242d" stroke-linecap="round" stroke-linejoin="round" stroke-miterlimit="10" stroke-width="4"/>
        <path d="M116.2 273.7h-5.1a2.134 2.134 0 0 1-2.15-2.15V256.2a2.134 2.134 0 0 1 2.15-2.15h5.1a2.134 2.134 0 0 1 2.15 2.15v15.35a2.166 2.166 0 0 1-2.15 2.15z" fill="#bfbfbf" stroke="#09242d" stroke-width=".5"/>
        <path d="M109.85 254.4a2.246 2.246 0 0 0-.95 1.8v15.35a2.246 2.246 0 0 0 .95 1.8c1.6-1.45 2.8-5.15 2.8-9.45 0-4.35-1.15-8.05-2.8-9.5z" fill="#fff" stroke="#09242d" stroke-width=".5"/>
        <path d="M116.2 273.7h-5.1a2.134 2.134 0 0 1-2.15-2.15V256.2a2.134 2.134 0 0 1 2.15-2.15h5.1a2.134 2.134 0 0 1 2.15 2.15v15.35a2.166 2.166 0 0 1-2.15 2.15z" fill="none" stroke="#09242d" stroke-linecap="round" stroke-linejoin="round" stroke-miterlimit="10" stroke-width="3"/>
        <path d="M159.85 317.9l-9.35 3.45L110.3 211l14.6-5.3 26.2 72z" fill="#fff" stroke="#09242d" stroke-width=".5"/>
        <path d="M151.1 277.7l-26.2-72-4 1.45 25.7 70.55 8.75 40.2-5.4 2 .55 1.45 9.35-3.45z" fill="#bfbfbf" stroke="#09242d" stroke-width=".5"/>
        <path d="M125.4 205.2l-14.6 5.3 11.3 31.1a11.351 11.351 0 0 0 10.7-8.6c.35-1.55.7-3.05 1.05-4.55l-8.45-23.25z" fill="#bfbfbf" stroke="#09242d" stroke-width=".5"/>
        <path d="M165.1 351.75l5.3 14.6" fill="none" stroke="#09242d" stroke-linecap="round" stroke-linejoin="round" stroke-miterlimit="10" stroke-width="4"/>
        <path d="M155.622 335.417l6.249-2.274 6.053 16.632-6.249 2.275z" fill="#bfbfbf" stroke="#09242d" stroke-width=".5"/>
        <path d="M159.85 317.9l-9.35 3.45L110.3 211l14.6-5.3 26.2 72z" fill="none" stroke="#09242d" stroke-linecap="round" stroke-linejoin="round" stroke-miterlimit="10" stroke-width="4"/>
        <path d="M155.622 335.417l6.249-2.274 6.053 16.632-6.249 2.275z" fill="none" stroke="#09242d" stroke-linecap="round" stroke-linejoin="round" stroke-miterlimit="10" stroke-width="4"/>
        <circle cx="9.95" cy="9.95" r="9.95" transform="translate(148.15 316.1)" fill="#fff" stroke="#09242d" stroke-width=".5"/>
        <path d="M160.65 321.95a9.992 9.992 0 0 0-5.95 12.8 3.87 3.87 0 0 0 .35.8 10.18 10.18 0 0 0 6.45-.1 9.992 9.992 0 0 0 5.95-12.8 3.87 3.87 0 0 0-.35-.8 9.542 9.542 0 0 0-6.45.1z" fill="#bfbfbf" stroke="#09242d" stroke-width=".5"/>
        <circle cx="9.95" cy="9.95" r="9.95" transform="translate(148.15 316.1)" fill="none" stroke="#09242d" stroke-linecap="round" stroke-linejoin="round" stroke-miterlimit="10" stroke-width="4"/>
        <path d="M67.55 317.9l9.4 3.45L117.1 211l-14.55-5.3-26.25 72z" fill="#fff" stroke="#09242d" stroke-width=".5"/>
        <path d="M67.55 317.9l9.4 3.45L117.1 211l-14.55-5.3-26.25 72z" fill="#fff" stroke="#09242d" stroke-width=".5"/>
        <path d="M102.55 205.7l-.55 1.45 10.6 3.85-39.65 108.9 4 1.45L117.1 211z" fill="#bfbfbf" stroke="#09242d" stroke-width=".5"/>
        <path d="M103.55 205.2l-8.45 23.25c.3 1.5.65 3 1.05 4.55a11.362 11.362 0 0 0 10.7 8.55l11.3-31.1-14.6-5.25z" fill="#bfbfbf" stroke="#09242d" stroke-width=".5"/>
        <path d="M67.55 317.9l9.4 3.45L117.1 211l-14.55-5.3-26.25 72z" fill="none" stroke="#09242d" stroke-linecap="round" stroke-linejoin="round" stroke-miterlimit="10" stroke-width="4"/>
        <path d="M59.478 349.784l6.053-16.633 6.25 2.275-6.054 16.632z" fill="#bfbfbf" stroke="#09242d" stroke-width=".5"/>
        <path d="M59.478 349.784l6.053-16.633 6.25 2.275-6.054 16.632z" fill="none" stroke="#09242d" stroke-linecap="round" stroke-linejoin="round" stroke-miterlimit="10" stroke-width="4"/>
        <path d="M62.3 351.75l-5.3 14.6" fill="none" stroke="#09242d" stroke-linecap="round" stroke-linejoin="round" stroke-miterlimit="10" stroke-width="4"/>
        <circle cx="9.95" cy="9.95" r="9.95" transform="rotate(-88.093 203.045 137.303)" fill="#fff" stroke="#09242d" stroke-width=".5"/>
        <circle cx="9.95" cy="9.95" r="9.95" transform="rotate(-88.093 203.045 137.303)" fill="#fff" stroke="#09242d" stroke-width=".5"/>
        <path d="M78.7 329.45a9.742 9.742 0 0 0-.35-7.6 9.9 9.9 0 0 0-12.4 6.05 9.742 9.742 0 0 0 .35 7.6 9.938 9.938 0 0 0 12.4-6.05z" fill="#bfbfbf" stroke="#09242d" stroke-width=".5"/>
        <circle cx="9.95" cy="9.95" r="9.95" transform="rotate(-88.093 203.045 137.303)" fill="none" stroke="#09242d" stroke-linecap="round" stroke-linejoin="round" stroke-miterlimit="10" stroke-width="4"/>
        <path d="M121.45 236.6h-15.5a5.856 5.856 0 0 1-5.5-4.4c-2.75-11.6-4.65-23.35-4.45-34.95a6.1 6.1 0 0 1 5.9-5.55h23.7a6.1 6.1 0 0 1 5.9 5.55c.2 11.6-1.7 23.35-4.45 34.95a6.069 6.069 0 0 1-5.6 4.4z" fill="#bfbfbf" stroke="#09242d" stroke-width=".5"/>
        <path d="M100.25 232.2c-2.75-11.6-4.65-23.35-4.45-34.95a6.1 6.1 0 0 1 5.9-5.55h16.9a42.457 42.457 0 0 1-.35 19.55c-2.55 10.1-5.85 23.9-16.15 23.9a5.742 5.742 0 0 1-1.85-2.95z" fill="#fff" stroke="#09242d" stroke-width=".5"/>
        <path d="M121.45 236.6h-15.5a5.856 5.856 0 0 1-5.5-4.4c-2.75-11.6-4.65-23.35-4.45-34.95a6.1 6.1 0 0 1 5.9-5.55h23.7a6.1 6.1 0 0 1 5.9 5.55c.2 11.6-1.7 23.35-4.45 34.95a6.069 6.069 0 0 1-5.6 4.4z" fill="none" stroke="#09242d" stroke-linecap="round" stroke-linejoin="round" stroke-miterlimit="10" stroke-width="4"/>
        <path d="M104.65 144.65h17.7v39.3h-17.7z" fill="#bfbfbf" stroke="#09242d" stroke-width=".5"/>
        <path d="M104.65 144.65h5v39.3h-5z" fill="#bfbfbf" stroke="#09242d" stroke-width=".5"/>
        <path d="M116.15 144.65h6.25v39.3h-6.25z" fill="#bfbfbf" stroke="#09242d" stroke-width=".5"/>
        <path d="M104.65 144.65h17.7v39.3h-17.7z" fill="none" stroke="#09242d" stroke-linecap="round" stroke-linejoin="round" stroke-miterlimit="10" stroke-width="4"/>
        <path d="M108.85 183.95h9.4v7.75h-9.4z" fill="#606060" stroke="#09242d" stroke-width=".5"/>
        <path d="M108.85 183.95h9.4v7.75h-9.4z" fill="none" stroke="#09242d" stroke-linecap="round" stroke-linejoin="round" stroke-miterlimit="10" stroke-width="4"/>
        <path d="M110.3 151.65v22.7" fill="none" stroke="#09242d" stroke-linecap="round" stroke-linejoin="round" stroke-miterlimit="10" stroke-width="3"/>
        <circle cx="5.25" cy="5.25" r="5.25" transform="translate(109.2 208.75)" fill="#606060" stroke="#09242d" stroke-width=".5"/>
        <circle cx="5.25" cy="5.25" r="5.25" transform="translate(109.2 208.75)" fill="none" stroke="#09242d" stroke-linecap="round" stroke-linejoin="round" stroke-miterlimit="10" stroke-width="4"/>
        <path d="M295.95 195.7H202.8a16.141 16.141 0 0 0-15.6 11.7 48.871 48.871 0 0 0 0 26.55 16.141 16.141 0 0 0 15.6 11.7h93.15a7.677 7.677 0 0 0 7.7-7.2 264.337 264.337 0 0 0 0-35.6 7.705 7.705 0 0 0-7.7-7.15z" fill="#1d4928" stroke="#09242d" stroke-width=".5"/>
        <path d="M295.95 195.7H202.8a16.141 16.141 0 0 0-15.6 11.7 48.871 48.871 0 0 0 0 26.55 16.141 16.141 0 0 0 15.6 11.7h93.15a7.677 7.677 0 0 0 7.7-7.2 264.337 264.337 0 0 0 0-35.6 7.705 7.705 0 0 0-7.7-7.15z" fill="none" stroke="#09242d" stroke-linecap="round" stroke-linejoin="round" stroke-miterlimit="10" stroke-width="4"/>
        <path d="M295.95 195.7H202.8a16.141 16.141 0 0 0-15.6 11.7 48.871 48.871 0 0 0 0 26.55 16.141 16.141 0 0 0 15.6 11.7h93.15a7.677 7.677 0 0 0 7.7-7.2 264.337 264.337 0 0 0 0-35.6 7.705 7.705 0 0 0-7.7-7.15z" fill="none" stroke="#09242d" stroke-linecap="round" stroke-linejoin="round" stroke-miterlimit="10" stroke-width="4"/>
        <path d="M237 236.4a83.175 83.175 0 0 1 0-31.45h123.7c0 7.2-1.6 18.95-5.9 27.15a8 8 0 0 1-7.1 4.3z" fill="#c4c4c4" stroke="#09242d" stroke-width=".5"/>
        <path d="M357.45 204.95c-.5 7.05-2.2 16.3-5.75 23.15a8 8 0 0 1-7.1 4.3H236.3c.2 1.35.4 2.7.65 4.05h110.7a8 8 0 0 0 7.1-4.3c4.3-8.2 5.9-19.95 5.9-27.15-1.05-.05-2.1-.05-3.2-.05z" fill="#c4c4c4" stroke="#09242d" stroke-width=".5" opacity=".77"/>
        <path d="M237 236.4a83.175 83.175 0 0 1 0-31.45h123.7c0 7.2-1.6 18.95-5.9 27.15a8 8 0 0 1-7.1 4.3z" fill="none" stroke="#09242d" stroke-linecap="round" stroke-linejoin="round" stroke-miterlimit="10" stroke-width="4"/>
        <path d="M360.25 211.85c.25-2.5.4-4.9.4-6.9h-123.7c-.45 2.3-.75 4.6-1 6.9z" fill="#fff" stroke="#09242d" stroke-width=".5"/>
        <path d="M360.25 211.85c.25-2.5.4-4.9.4-6.9h-123.7c-.45 2.3-.75 4.6-1 6.9z" fill="none" stroke="#09242d" stroke-linecap="round" stroke-linejoin="round" stroke-miterlimit="10" stroke-width="4"/>
        <path d="M240.65 212.85l-6.95 23.55" fill="none" stroke="#09242d" stroke-linecap="round" stroke-linejoin="round" stroke-miterlimit="10" stroke-width="4"/>
        <path d="M253.75 212.85l-6.95 23.55" fill="none" stroke="#09242d" stroke-linecap="round" stroke-linejoin="round" stroke-miterlimit="10" stroke-width="4"/>
        <path d="M266.8 212.85l-6.95 23.55" fill="none" stroke="#09242d" stroke-linecap="round" stroke-linejoin="round" stroke-miterlimit="10" stroke-width="4"/>
        <path d="M279.9 212.85l-6.95 23.55" fill="none" stroke="#09242d" stroke-linecap="round" stroke-linejoin="round" stroke-miterlimit="10" stroke-width="4"/>
        <path d="M293 212.85l-6.95 23.55" fill="none" stroke="#09242d" stroke-linecap="round" stroke-linejoin="round" stroke-miterlimit="10" stroke-width="4"/>
        <path d="M306.05 212.85l-6.95 23.55" fill="none" stroke="#09242d" stroke-linecap="round" stroke-linejoin="round" stroke-miterlimit="10" stroke-width="4"/>
        <path d="M319.15 212.85l-6.95 23.55" fill="none" stroke="#09242d" stroke-linecap="round" stroke-linejoin="round" stroke-miterlimit="10" stroke-width="4"/>
        <path d="M332.25 212.85l-6.95 23.55" fill="none" stroke="#09242d" stroke-linecap="round" stroke-linejoin="round" stroke-miterlimit="10" stroke-width="4"/>
        <path d="M345.3 212.85l-6.95 23.55" fill="none" stroke="#09242d" stroke-linecap="round" stroke-linejoin="round" stroke-miterlimit="10" stroke-width="4"/>
        <path d="M304.15 212.85c-.1-3.3-.25-6.65-.5-9.95a7.711 7.711 0 0 0-7.7-7.2H202.8a16.141 16.141 0 0 0-15.6 11.7 50.414 50.414 0 0 0-1.2 5.45z" fill="#47a942" stroke="#09242d" stroke-width=".5"/>
        <path d="M204.5 202.9h93.15a7.9 7.9 0 0 1 6.15 3l-.15-2.55a7.711 7.711 0 0 0-7.7-7.2H202.8a16.141 16.141 0 0 0-15.6 11.7 50.414 50.414 0 0 0-1.2 5.45h3.35a16.133 16.133 0 0 1 15.15-10.4z" fill="#81c347" stroke="#09242d" stroke-width=".5"/>
        <path d="M303.65 203.4a7.711 7.711 0 0 0-7.7-7.2H202.8a16.141 16.141 0 0 0-15.6 11.7 50.414 50.414 0 0 0-1.2 5.45h.1l.45-1.8a16.141 16.141 0 0 1 15.6-11.7h93.15a7.62 7.62 0 0 1 7.1 4.7 7.423 7.423 0 0 1 1.4 1.4c-.05-.9-.1-1.7-.15-2.55z" fill="#cadb2a" stroke="#09242d" stroke-width=".5"/>
        <path d="M304.15 212.85c-.1-3.3-.25-6.65-.5-9.95a7.711 7.711 0 0 0-7.7-7.2H202.8a16.141 16.141 0 0 0-15.6 11.7 50.414 50.414 0 0 0-1.2 5.45z" fill="none" stroke="#09242d" stroke-linecap="round" stroke-linejoin="round" stroke-miterlimit="10" stroke-width="4"/>
        <path d="M303.65 238.5c.25-3.6.4-7.25.5-10.85l-2.7-1.7-7.45 4.75-7.45-4.75-7.45 4.75-7.45-4.75-7.45 4.75-7.45-4.75-7.45 4.75-7.45-4.75-7.45 4.75-7.45-4.75-7.45 4.75-7.45-4.75-7.45 4.75-7.45-4.75-7.45 4.75-3.85-2.45a45.324 45.324 0 0 0 1.25 5.75 16.141 16.141 0 0 0 15.6 11.7h93.15a7.81 7.81 0 0 0 7.8-7.2z" fill="#47a942" stroke="#09242d" stroke-width=".5"/>
        <path d="M303.75 227.35l-.3 5.7a7.711 7.711 0 0 1-7.7 7.2h-93.2a16.239 16.239 0 0 1-15.5-11.3l-1.15-.75a45.324 45.324 0 0 0 1.25 5.75 16.141 16.141 0 0 0 15.6 11.7h93.15a7.677 7.677 0 0 0 7.7-7.2c.25-3.6.4-7.25.5-10.85l-.35-.25z" fill="#26863f" stroke="#09242d" stroke-width=".5"/>
        <path d="M303.65 238.5c.25-3.6.4-7.25.5-10.85l-2.7-1.7-7.45 4.75-7.45-4.75-7.45 4.75-7.45-4.75-7.45 4.75-7.45-4.75-7.45 4.75-7.45-4.75-7.45 4.75-7.45-4.75-7.45 4.75-7.45-4.75-7.45 4.75-7.45-4.75-7.45 4.75-3.85-2.45a45.324 45.324 0 0 0 1.25 5.75 16.141 16.141 0 0 0 15.6 11.7h93.15a7.81 7.81 0 0 0 7.8-7.2z" fill="none" stroke="#09242d" stroke-linecap="round" stroke-linejoin="round" stroke-miterlimit="10" stroke-width="4"/>
        <circle cx="12.9" cy="12.9" r="12.9" transform="translate(227.05 208.2)" fill="#cc0" stroke="#09242d" stroke-width=".5"/>
        <circle cx="12.9" cy="12.9" r="12.9" transform="translate(227.05 208.2)" fill="none" stroke="#09242d" stroke-linecap="round" stroke-linejoin="round" stroke-miterlimit="10" stroke-width="4"/>
        <path d="M304.45 232.15h8.95v9.35h-8.95z" fill="#245b34" stroke="#09242d" stroke-width=".5"/>
        <path d="M304.45 232.15h8.95v9.35h-8.95z" fill="none" stroke="#09242d" stroke-linecap="round" stroke-linejoin="round" stroke-miterlimit="10" stroke-width="4"/>
        <path d="M304.45 203h8.95v9.35h-8.95z" fill="#245b34" stroke="#09242d" stroke-width=".5"/>
        <path d="M304.45 203h8.95v9.35h-8.95z" fill="none" stroke="#09242d" stroke-linecap="round" stroke-linejoin="round" stroke-miterlimit="10" stroke-width="4"/>
        <path d="M227.55 223.85l20.35-12.5" fill="none" stroke="#09242d" stroke-linecap="round" stroke-linejoin="round" stroke-miterlimit="10" stroke-width="4"/>
        <path d="M232.5 230.85l20.3-12.5" fill="none" stroke="#09242d" stroke-linecap="round" stroke-linejoin="round" stroke-miterlimit="10" stroke-width="4"/>
        <path d="M440.4 171H190.2a8.365 8.365 0 0 1-8.35-8.35V136.9a8.365 8.365 0 0 1 8.35-8.35h250.2a8.365 8.365 0 0 1 8.35 8.35v25.75a8.365 8.365 0 0 1-8.35 8.35z" fill="#ff9e03" stroke="#09242d" stroke-width=".5"/>
        <path d="M440.4 171H190.2a8.365 8.365 0 0 1-8.35-8.35V136.9a8.365 8.365 0 0 1 8.35-8.35h250.2a8.365 8.365 0 0 1 8.35 8.35v25.75a8.365 8.365 0 0 1-8.35 8.35z" fill="none" stroke="#09242d" stroke-linecap="round" stroke-linejoin="round" stroke-miterlimit="10" stroke-width="4"/>
        <path d="M195.95 150.35h235.7" fill="none" stroke="#09242d" stroke-linecap="round" stroke-linejoin="round" stroke-miterlimit="10" stroke-width="5"/>
        <path d="M431.25 128.55v8.55" fill="none" stroke="#09242d" stroke-linejoin="round" stroke-miterlimit="10" stroke-width="1.5"/>
        <path d="M408.05 128.55v8.55" fill="none" stroke="#09242d" stroke-linejoin="round" stroke-miterlimit="10" stroke-width="1.5"/>
        <path d="M414.15 128.55V133" fill="none" stroke="#09242d" stroke-linejoin="round" stroke-miterlimit="10" stroke-width="1.5"/>
        <path d="M425.35 128.55V133" fill="none" stroke="#09242d" stroke-linejoin="round" stroke-miterlimit="10" stroke-width="1.5"/>
        <path d="M419.75 128.55v6.2" fill="none" stroke="#09242d" stroke-linejoin="round" stroke-miterlimit="10" stroke-width="1.5"/>
        <path d="M384.9 128.55v8.55" fill="none" stroke="#09242d" stroke-linejoin="round" stroke-miterlimit="10" stroke-width="1.5"/>
        <path d="M391 128.55V133" fill="none" stroke="#09242d" stroke-linejoin="round" stroke-miterlimit="10" stroke-width="1.5"/>
        <path d="M402.15 128.55V133" fill="none" stroke="#09242d" stroke-linejoin="round" stroke-miterlimit="10" stroke-width="1.5"/>
        <path d="M396.55 128.55v6.2" fill="none" stroke="#09242d" stroke-linejoin="round" stroke-miterlimit="10" stroke-width="1.5"/>
        <path d="M361.7 128.55v8.55" fill="none" stroke="#09242d" stroke-linejoin="round" stroke-miterlimit="10" stroke-width="1.5"/>
        <path d="M367.8 128.55V133" fill="none" stroke="#09242d" stroke-linejoin="round" stroke-miterlimit="10" stroke-width="1.5"/>
        <path d="M378.95 128.55V133" fill="none" stroke="#09242d" stroke-linejoin="round" stroke-miterlimit="10" stroke-width="1.5"/>
        <path d="M373.35 128.55v6.2" fill="none" stroke="#09242d" stroke-linejoin="round" stroke-miterlimit="10" stroke-width="1.5"/>
        <path d="M338.5 128.55v8.55" fill="none" stroke="#09242d" stroke-linejoin="round" stroke-miterlimit="10" stroke-width="1.5"/>
        <path d="M344.6 128.55V133" fill="none" stroke="#09242d" stroke-linejoin="round" stroke-miterlimit="10" stroke-width="1.5"/>
        <path d="M355.75 128.55V133" fill="none" stroke="#09242d" stroke-linejoin="round" stroke-miterlimit="10" stroke-width="1.5"/>
        <path d="M350.15 128.55v6.2" fill="none" stroke="#09242d" stroke-linejoin="round" stroke-miterlimit="10" stroke-width="1.5"/>
        <path d="M315.3 128.55v8.55" fill="none" stroke="#09242d" stroke-linejoin="round" stroke-miterlimit="10" stroke-width="1.5"/>
        <path d="M321.4 128.55V133" fill="none" stroke="#09242d" stroke-linejoin="round" stroke-miterlimit="10" stroke-width="1.5"/>
        <path d="M332.55 128.55V133" fill="none" stroke="#09242d" stroke-linejoin="round" stroke-miterlimit="10" stroke-width="1.5"/>
        <path d="M327 128.55v6.2" fill="none" stroke="#09242d" stroke-linejoin="round" stroke-miterlimit="10" stroke-width="1.5"/>
        <path d="M292.1 128.55v8.55" fill="none" stroke="#09242d" stroke-linejoin="round" stroke-miterlimit="10" stroke-width="1.5"/>
        <path d="M298.2 128.55V133" fill="none" stroke="#09242d" stroke-linejoin="round" stroke-miterlimit="10" stroke-width="1.5"/>
        <path d="M309.35 128.55V133" fill="none" stroke="#09242d" stroke-linejoin="round" stroke-miterlimit="10" stroke-width="1.5"/>
        <path d="M303.8 128.55v6.2" fill="none" stroke="#09242d" stroke-linejoin="round" stroke-miterlimit="10" stroke-width="1.5"/>
        <path d="M268.9 128.55v8.55" fill="none" stroke="#09242d" stroke-linejoin="round" stroke-miterlimit="10" stroke-width="1.5"/>
        <path d="M275 128.55V133" fill="none" stroke="#09242d" stroke-linejoin="round" stroke-miterlimit="10" stroke-width="1.5"/>
        <path d="M286.15 128.55V133" fill="none" stroke="#09242d" stroke-linejoin="round" stroke-miterlimit="10" stroke-width="1.5"/>
        <path d="M280.6 128.55v6.2" fill="none" stroke="#09242d" stroke-linejoin="round" stroke-miterlimit="10" stroke-width="1.5"/>
        <path d="M245.7 128.55v8.55" fill="none" stroke="#09242d" stroke-linejoin="round" stroke-miterlimit="10" stroke-width="1.5"/>
        <path d="M251.8 128.55V133" fill="none" stroke="#09242d" stroke-linejoin="round" stroke-miterlimit="10" stroke-width="1.5"/>
        <path d="M263 128.55V133" fill="none" stroke="#09242d" stroke-linejoin="round" stroke-miterlimit="10" stroke-width="1.5"/>
        <path d="M257.4 128.55v6.2" fill="none" stroke="#09242d" stroke-linejoin="round" stroke-miterlimit="10" stroke-width="1.5"/>
        <path d="M222.5 128.55v8.55" fill="none" stroke="#09242d" stroke-linejoin="round" stroke-miterlimit="10" stroke-width="1.5"/>
        <path d="M228.6 128.55V133" fill="none" stroke="#09242d" stroke-linejoin="round" stroke-miterlimit="10" stroke-width="1.5"/>
        <path d="M239.8 128.55V133" fill="none" stroke="#09242d" stroke-linejoin="round" stroke-miterlimit="10" stroke-width="1.5"/>
        <path d="M234.2 128.55v6.2" fill="none" stroke="#09242d" stroke-linejoin="round" stroke-miterlimit="10" stroke-width="1.5"/>
        <path d="M199.3 128.55v8.55" fill="none" stroke="#09242d" stroke-linejoin="round" stroke-miterlimit="10" stroke-width="1.5"/>
        <path d="M205.4 128.55V133" fill="none" stroke="#09242d" stroke-linejoin="round" stroke-miterlimit="10" stroke-width="1.5"/>
        <path d="M216.6 128.55V133" fill="none" stroke="#09242d" stroke-linejoin="round" stroke-miterlimit="10" stroke-width="1.5"/>
        <path d="M211 128.55v6.2" fill="none" stroke="#09242d" stroke-linejoin="round" stroke-miterlimit="10" stroke-width="1.5"/>
        <path d="M444.75 227.2l-175.9 122.1a3.005 3.005 0 0 0 1.65 5.5h176.95a2.006 2.006 0 0 0 2-2V229.7a3.035 3.035 0 0 0-4.7-2.5zM342.7 329.9l81.8-59.15v59.15z" fill="#ff9e03" stroke="#09242d" stroke-width=".5"/>
        <path d="M444.75 227.2l-175.9 122.1a3.005 3.005 0 0 0 1.65 5.5h176.95a2.006 2.006 0 0 0 2-2V229.7a3.035 3.035 0 0 0-4.7-2.5zM342.7 329.9l81.8-59.15v59.15z" fill="none" stroke="#09242d" stroke-linecap="round" stroke-linejoin="round" stroke-miterlimit="10" stroke-width="4"/>
        <path d="M438.9 354.7v-8.25" fill="none" stroke="#09242d" stroke-linejoin="round" stroke-miterlimit="10" stroke-width="1.5"/>
        <path d="M416.4 354.7v-8.25" fill="none" stroke="#09242d" stroke-linejoin="round" stroke-miterlimit="10" stroke-width="1.5"/>
        <path d="M422.3 354.7v-4.3" fill="none" stroke="#09242d" stroke-linejoin="round" stroke-miterlimit="10" stroke-width="1.5"/>
        <path d="M433.15 354.7v-4.3" fill="none" stroke="#09242d" stroke-linejoin="round" stroke-miterlimit="10" stroke-width="1.5"/>
        <path d="M427.7 354.7v-6" fill="none" stroke="#09242d" stroke-linejoin="round" stroke-miterlimit="10" stroke-width="1.5"/>
        <path d="M393.9 354.7v-8.25" fill="none" stroke="#09242d" stroke-linejoin="round" stroke-miterlimit="10" stroke-width="1.5"/>
        <path d="M399.8 354.7v-4.3" fill="none" stroke="#09242d" stroke-linejoin="round" stroke-miterlimit="10" stroke-width="1.5"/>
        <path d="M410.65 354.7v-4.3" fill="none" stroke="#09242d" stroke-linejoin="round" stroke-miterlimit="10" stroke-width="1.5"/>
        <path d="M405.2 354.7v-6" fill="none" stroke="#09242d" stroke-linejoin="round" stroke-miterlimit="10" stroke-width="1.5"/>
        <path d="M371.4 354.7v-8.25" fill="none" stroke="#09242d" stroke-linejoin="round" stroke-miterlimit="10" stroke-width="1.5"/>
        <path d="M377.3 354.7v-4.3" fill="none" stroke="#09242d" stroke-linejoin="round" stroke-miterlimit="10" stroke-width="1.5"/>
        <path d="M388.15 354.7v-4.3" fill="none" stroke="#09242d" stroke-linejoin="round" stroke-miterlimit="10" stroke-width="1.5"/>
        <path d="M382.7 354.7v-6" fill="none" stroke="#09242d" stroke-linejoin="round" stroke-miterlimit="10" stroke-width="1.5"/>
        <path d="M348.9 354.7v-8.25" fill="none" stroke="#09242d" stroke-linejoin="round" stroke-miterlimit="10" stroke-width="1.5"/>
        <path d="M354.8 354.7v-4.3" fill="none" stroke="#09242d" stroke-linejoin="round" stroke-miterlimit="10" stroke-width="1.5"/>
        <path d="M365.65 354.7v-4.3" fill="none" stroke="#09242d" stroke-linejoin="round" stroke-miterlimit="10" stroke-width="1.5"/>
        <path d="M360.2 354.7v-6" fill="none" stroke="#09242d" stroke-linejoin="round" stroke-miterlimit="10" stroke-width="1.5"/>
        <path d="M326.4 354.7v-8.25" fill="none" stroke="#09242d" stroke-linejoin="round" stroke-miterlimit="10" stroke-width="1.5"/>
        <path d="M332.3 354.7v-4.3" fill="none" stroke="#09242d" stroke-linejoin="round" stroke-miterlimit="10" stroke-width="1.5"/>
        <path d="M343.15 354.7v-4.3" fill="none" stroke="#09242d" stroke-linejoin="round" stroke-miterlimit="10" stroke-width="1.5"/>
        <path d="M337.7 354.7v-6" fill="none" stroke="#09242d" stroke-linejoin="round" stroke-miterlimit="10" stroke-width="1.5"/>
        <path d="M303.9 354.7v-8.25" fill="none" stroke="#09242d" stroke-linejoin="round" stroke-miterlimit="10" stroke-width="1.5"/>
        <path d="M309.8 354.7v-4.3" fill="none" stroke="#09242d" stroke-linejoin="round" stroke-miterlimit="10" stroke-width="1.5"/>
        <path d="M320.65 354.7v-4.3" fill="none" stroke="#09242d" stroke-linejoin="round" stroke-miterlimit="10" stroke-width="1.5"/>
        <path d="M315.2 354.7v-6" fill="none" stroke="#09242d" stroke-linejoin="round" stroke-miterlimit="10" stroke-width="1.5"/>
        <path d="M281.4 354.7v-8.25" fill="none" stroke="#09242d" stroke-linejoin="round" stroke-miterlimit="10" stroke-width="1.5"/>
        <path d="M287.3 354.7v-4.3" fill="none" stroke="#09242d" stroke-linejoin="round" stroke-miterlimit="10" stroke-width="1.5"/>
        <path d="M298.15 354.7v-4.3" fill="none" stroke="#09242d" stroke-linejoin="round" stroke-miterlimit="10" stroke-width="1.5"/>
        <path d="M292.7 354.7v-6" fill="none" stroke="#09242d" stroke-linejoin="round" stroke-miterlimit="10" stroke-width="1.5"/>
        <path d="M449 254.6h-8.3" fill="none" stroke="#09242d" stroke-linejoin="round" stroke-miterlimit="10" stroke-width="1.5"/>
        <path d="M449 248.65h-4.35" fill="none" stroke="#09242d" stroke-linejoin="round" stroke-miterlimit="10" stroke-width="1.5"/>
        <path d="M449 237.85h-4.35" fill="none" stroke="#09242d" stroke-linejoin="round" stroke-miterlimit="10" stroke-width="1.5"/>
        <path d="M449 243.25h-6.05" fill="none" stroke="#09242d" stroke-linejoin="round" stroke-miterlimit="10" stroke-width="1.5"/>
        <path d="M449 277.1h-8.3" fill="none" stroke="#09242d" stroke-linejoin="round" stroke-miterlimit="10" stroke-width="1.5"/>
        <path d="M449 271.15h-4.35" fill="none" stroke="#09242d" stroke-linejoin="round" stroke-miterlimit="10" stroke-width="1.5"/>
        <path d="M449 260.35h-4.35" fill="none" stroke="#09242d" stroke-linejoin="round" stroke-miterlimit="10" stroke-width="1.5"/>
        <path d="M449 265.75h-6.05" fill="none" stroke="#09242d" stroke-linejoin="round" stroke-miterlimit="10" stroke-width="1.5"/>
        <path d="M449 299.6h-8.3" fill="none" stroke="#09242d" stroke-linejoin="round" stroke-miterlimit="10" stroke-width="1.5"/>
        <path d="M449 293.65h-4.35" fill="none" stroke="#09242d" stroke-linejoin="round" stroke-miterlimit="10" stroke-width="1.5"/>
        <path d="M449 282.85h-4.35" fill="none" stroke="#09242d" stroke-linejoin="round" stroke-miterlimit="10" stroke-width="1.5"/>
        <path d="M449 288.25h-6.05" fill="none" stroke="#09242d" stroke-linejoin="round" stroke-miterlimit="10" stroke-width="1.5"/>
        <path d="M449 322.1h-8.3" fill="none" stroke="#09242d" stroke-linejoin="round" stroke-miterlimit="10" stroke-width="1.5"/>
        <path d="M449 316.15h-4.35" fill="none" stroke="#09242d" stroke-linejoin="round" stroke-miterlimit="10" stroke-width="1.5"/>
        <path d="M449 305.35h-4.35" fill="none" stroke="#09242d" stroke-linejoin="round" stroke-miterlimit="10" stroke-width="1.5"/>
        <path d="M449 310.75h-6.05" fill="none" stroke="#09242d" stroke-linejoin="round" stroke-miterlimit="10" stroke-width="1.5"/>
        <path d="M449 344.6h-8.3" fill="none" stroke="#09242d" stroke-linejoin="round" stroke-miterlimit="10" stroke-width="1.5"/>
        <path d="M449 338.65h-4.35" fill="none" stroke="#09242d" stroke-linejoin="round" stroke-miterlimit="10" stroke-width="1.5"/>
        <path d="M449 327.85h-4.35" fill="none" stroke="#09242d" stroke-linejoin="round" stroke-miterlimit="10" stroke-width="1.5"/>
        <path d="M449 333.25h-6.05" fill="none" stroke="#09242d" stroke-linejoin="round" stroke-miterlimit="10" stroke-width="1.5"/>
        <path d="M263.2 313.2h-70.55a5.356 5.356 0 0 1-5.35-5.35v-27.8a5.356 5.356 0 0 1 5.35-5.35h70.6a5.356 5.356 0 0 1 5.35 5.35v27.8a5.432 5.432 0 0 1-5.4 5.35z" fill="#fff" stroke="#09242d" stroke-width=".5"/>
        <path d="M249.8 313.2h-52a5.356 5.356 0 0 1-5.35-5.35v-27.8a5.356 5.356 0 0 1 5.35-5.35h52a5.356 5.356 0 0 1 5.35 5.35v27.8a5.356 5.356 0 0 1-5.35 5.35z" fill="#bfbfbf" stroke="#09242d" stroke-width=".5"/>
        <path d="M263.2 313.2h-70.55a5.356 5.356 0 0 1-5.35-5.35v-27.8a5.356 5.356 0 0 1 5.35-5.35h70.6a5.356 5.356 0 0 1 5.35 5.35v27.8a5.432 5.432 0 0 1-5.4 5.35z" fill="none" stroke="#09242d" stroke-linecap="round" stroke-linejoin="round" stroke-miterlimit="10" stroke-width="4"/>
        <path d="M247.4 316.35h-47.35a2.774 2.774 0 0 1-2.75-2.75v-39.85a2.774 2.774 0 0 1 2.75-2.75h47.35a2.774 2.774 0 0 1 2.75 2.75v39.85a2.742 2.742 0 0 1-2.75 2.75z" fill="#06a0ff" stroke="#09242d" stroke-width=".5"/>
        <path d="M247.4 316.35h-47.35a2.774 2.774 0 0 1-2.75-2.75v-.65a2.774 2.774 0 0 1 2.75-2.75h47.35a2.774 2.774 0 0 1 2.75 2.75v.65a2.742 2.742 0 0 1-2.75 2.75z" fill="#06a0ff" stroke="#09242d" stroke-width=".5" opacity=".27"/>
        <path d="M247.4 277.8h-47.35a2.774 2.774 0 0 1-2.75-2.75v-.65a2.774 2.774 0 0 1 2.75-2.75h47.35a2.774 2.774 0 0 1 2.75 2.75v.65a2.742 2.742 0 0 1-2.75 2.75z" fill="#06a0ff" stroke="#09242d" stroke-width=".5" opacity=".38"/>
        <path d="M247.4 316.35h-47.35a2.774 2.774 0 0 1-2.75-2.75v-39.85a2.774 2.774 0 0 1 2.75-2.75h47.35a2.774 2.774 0 0 1 2.75 2.75v39.85a2.742 2.742 0 0 1-2.75 2.75z" fill="none" stroke="#09242d" stroke-linecap="round" stroke-linejoin="round" stroke-miterlimit="10" stroke-width="4"/>
        <path d="M208 285.15h27.5" fill="none" stroke="#09242d" stroke-linecap="round" stroke-linejoin="round" stroke-miterlimit="10" stroke-width="4" opacity=".58"/>
        <path d="M208 293.95h11.5" fill="none" stroke="#09242d" stroke-linecap="round" stroke-linejoin="round" stroke-miterlimit="10" stroke-width="4" opacity=".58"/>
      </g>
    </g>
  </symbol>
</svg>