<svg xmlns="http://www.w3.org/2000/svg" style="display: none;">
  <symbol id="icon-stats" viewBox="0 0 24 24">
    <title>stats</title>
    <g fill="none" class="nc-icon-wrapper" stroke="none">
      <path d="M14.504 4.752a2.752 2.752 0 1 0-5.504 0V19.25a2.752 2.752 0 0 0 3.667 2.597 6.513 6.513 0 0 1-.934-1.345A1.252 1.252 0 0 1 10.5 19.25V4.752a1.252 1.252 0 0 1 2.504 0v8.055c.444-.426.949-.79 1.5-1.076V4.75z" fill="currentColor"/>
      <path d="M21.504 12.38V9.752a2.752 2.752 0 1 0-5.504 0v1.422a6.52 6.52 0 0 1 1.5-.173V9.75a1.252 1.252 0 0 1 2.504 0v1.75a6.492 6.492 0 0 1 1.5.879z" fill="currentColor"/>
      <path d="M4.752 12a2.752 2.752 0 0 1 2.752 2.752v4.498a2.752 2.752 0 0 1-5.504 0v-4.498A2.752 2.752 0 0 1 4.752 12zm0 1.5c-.692 0-1.252.56-1.252 1.252v4.498a1.252 1.252 0 1 0 2.504 0v-4.498c0-.692-.56-1.252-1.252-1.252z" fill="currentColor"/>
      <path d="M23 17.5a5.5 5.5 0 1 0-11 0 5.5 5.5 0 0 0 11 0zm-5 .5l.001 2.504a.5.5 0 1 1-1 0v-2.503h-2.505a.5.5 0 0 1 0-1H17V14.5a.5.5 0 1 1 1 0V17h2.503a.5.5 0 1 1 0 1h-2.502z" fill="currentColor"/>
    </g>
  </symbol>
  <symbol id="icon-create-test" viewBox="0 0 24 24">
    <title>create test</title>
    <g fill="none" class="nc-icon-wrapper" stroke="none">
      <path d="M21.03 2.97a3.578 3.578 0 0 1 0 5.06l-2.644 2.645a6.45 6.45 0 0 0-1.579-.543L17.94 9 15 6.06 5.062 16a.75.75 0 0 0-.193.333l-1.05 3.85 3.85-1.05A.75.75 0 0 0 8 18.938l1.13-1.13c.114.555.298 1.085.543 1.579l-.612.612a2.25 2.25 0 0 1-.999.58l-5.116 1.395a.75.75 0 0 1-.92-.921l1.395-5.116a2.25 2.25 0 0 1 .58-.999L15.97 2.97a3.578 3.578 0 0 1 5.06 0zM15.5 11c.293 0 .58.025.86.072l.174.716a2 2 0 0 0 2.413 1.475l.098-.026.601-.179c.363.467.653.997.854 1.57l-.447.431a2 2 0 0 0-.17 2.699l.142.157.475.457c-.2.573-.49 1.102-.853 1.57l-.602-.179a2 2 0 0 0-2.485 1.352l-.026.098-.173.716a5.18 5.18 0 0 1-1.723 0l-.172-.716a2 2 0 0 0-2.413-1.476l-.098.026-.602.178a5.549 5.549 0 0 1-.853-1.57l.447-.43a2 2 0 0 0 .055-2.827l-.055-.055-.447-.43c.2-.574.49-1.103.853-1.57l.602.178a2 2 0 0 0 2.485-1.351l.026-.098.172-.716c.28-.047.569-.072.862-.072zm0 4c-.8 0-1.45.672-1.45 1.5 0 .829.65 1.5 1.45 1.5.8 0 1.45-.671 1.45-1.5 0-.828-.65-1.5-1.45-1.5zm1.53-10.97l-.97.97L19 7.94l.97-.97a2.078 2.078 0 1 0-2.94-2.94z" fill="currentColor"/>
    </g>
  </symbol>
  <symbol id="icon-grading" viewBox="0 0 24 24">
    <title>grading</title>
    <g fill="none" class="nc-icon-wrapper" stroke="none">
      <path d="M18.5 20a.5.5 0 0 1-.5.5h-5.732A6.518 6.518 0 0 1 11.19 22H18a2 2 0 0 0 2-2V9.828a2 2 0 0 0-.586-1.414l-5.829-5.828a.491.491 0 0 0-.049-.04.63.63 0 0 1-.036-.03 2.072 2.072 0 0 0-.219-.18.652.652 0 0 0-.08-.044l-.048-.024-.05-.029c-.054-.031-.109-.063-.166-.087a1.977 1.977 0 0 0-.624-.138c-.02-.001-.04-.004-.059-.007A.605.605 0 0 0 12.172 2H6a2 2 0 0 0-2 2v7.498a6.451 6.451 0 0 1 1.5-.422V4a.5.5 0 0 1 .5-.5h6V8a2 2 0 0 0 2 2h4.5v10zm-5-15.379L17.378 8.5H14a.5.5 0 0 1-.5-.5V4.621zM12 17.5a5.5 5.5 0 1 1-11 0 5.5 5.5 0 0 1 11 0zm-2.146-2.354a.5.5 0 0 0-.708 0L5.5 18.793l-1.646-1.647a.5.5 0 0 0-.708.708l2 2a.5.5 0 0 0 .708 0l4-4a.5.5 0 0 0 0-.708z" fill="currentColor"/>
    </g>
  </symbol>
  <symbol id="icon-logo" viewBox="0 0 79.74 18.01">
    <title>logo</title>
    <g class="nc-icon-wrapper" stroke="none" fill="currentColor">
      <path d="M5.29 14.14a3.08 3.08 0 0 1-2.82-1.5v1.3H0V0h2.47v5.39a3 3 0 0 1 1.2-1.13 3.494 3.494 0 0 1 1.62-.38 3.867 3.867 0 0 1 2.13.615A4.226 4.226 0 0 1 8.94 6.27 6.217 6.217 0 0 1 9.5 9a6.543 6.543 0 0 1-.51 2.64 4.239 4.239 0 0 1-1.465 1.835 3.813 3.813 0 0 1-2.235.665zM2.25 9a3.641 3.641 0 0 0 .29 1.5 2.3 2.3 0 0 0 .825 1 2.217 2.217 0 0 0 1.255.36 2.265 2.265 0 0 0 1.26-.35 2.277 2.277 0 0 0 .835-1 3.622 3.622 0 0 0 .3-1.51 3.553 3.553 0 0 0-.3-1.5 2.286 2.286 0 0 0-.835-.99 2.265 2.265 0 0 0-1.26-.35 2.24 2.24 0 0 0-1.25.35 2.262 2.262 0 0 0-.825.995A3.614 3.614 0 0 0 2.25 9zm11.76 4.18l-3.72-9.1h2.73l2.31 6.62 2.36-6.62h2.68l-5.66 13.93h-2.7zm11.88.96a3.1 3.1 0 0 1-2.145-.745 2.991 2.991 0 0 1-.835-2.345V6.01h-1.8V4.08h1.8V1.79L25.43.43v3.65h2.14v1.93h-2.14v4.35a2.671 2.671 0 0 0 .25 1.32.949.949 0 0 0 .89.42 3.807 3.807 0 0 0 1-.17v1.91a4.8 4.8 0 0 1-1.68.3zm3.6-10.06h2.49v9.86h-2.49zM29.42 0h2.64v2.55h-2.64zm9.35 14.14a4.646 4.646 0 0 1-2.615-.715 4.521 4.521 0 0 1-1.635-1.885A5.9 5.9 0 0 1 33.97 9a5.872 5.872 0 0 1 .55-2.53 4.487 4.487 0 0 1 1.635-1.88 4.67 4.67 0 0 1 2.615-.71 4.6 4.6 0 0 1 2.615.73 4.288 4.288 0 0 1 1.625 2.18l-2.18.85a2.055 2.055 0 0 0-2.06-1.6 2.018 2.018 0 0 0-1.3.415 2.452 2.452 0 0 0-.77 1.085A4.145 4.145 0 0 0 36.45 9a4.251 4.251 0 0 0 .245 1.47 2.4 2.4 0 0 0 .77 1.085 2.039 2.039 0 0 0 1.305.415 2.055 2.055 0 0 0 2.06-1.6l2.18.85a4.315 4.315 0 0 1-1.625 2.185 4.581 4.581 0 0 1-2.615.735zm9.58 0a3.392 3.392 0 0 1-2.69-1.035 4.192 4.192 0 0 1-.91-2.865V4.08h2.49v5.54a3.108 3.108 0 0 0 .41 1.74 1.607 1.607 0 0 0 1.44.61 1.743 1.743 0 0 0 1.3-.475 2.6 2.6 0 0 0 .64-1.33A11.088 11.088 0 0 0 51.21 8V4.08h2.48v9.86h-2.48V12.7A2.957 2.957 0 0 1 50 13.79a3.769 3.769 0 0 1-1.65.35zm10.11 0a2.311 2.311 0 0 1-1.71-.64 2.623 2.623 0 0 1-.64-1.93V0h2.47v11.08a.759.759 0 0 0 .19.575.731.731 0 0 0 .525.185 2.435 2.435 0 0 0 .71-.12v2.11a4 4 0 0 1-.8.235 4.2 4.2 0 0 1-.745.075zm9.5-1.37a3.193 3.193 0 0 1-2.82 1.37 4.466 4.466 0 0 1-1.935-.405 3.2 3.2 0 0 1-1.34-1.145 3.031 3.031 0 0 1-.485-1.7 2.919 2.919 0 0 1 .34-1.435 2.471 2.471 0 0 1 .95-.965 4.727 4.727 0 0 1 2.41-.54h2.84v-.24a1.527 1.527 0 0 0-.52-1.225 2.245 2.245 0 0 0-1.5-.445 3.23 3.23 0 0 0-1.315.275 4.022 4.022 0 0 0-1.255.935l-1.79-1.51a5.293 5.293 0 0 1 2.03-1.4 6.849 6.849 0 0 1 2.51-.46 5.373 5.373 0 0 1 2.32.46 3.347 3.347 0 0 1 1.485 1.325A3.924 3.924 0 0 1 70.4 7.71v6.23h-2.28zm-4.09-1.87a1.068 1.068 0 0 0 .44.9 1.918 1.918 0 0 0 1.19.335 2.584 2.584 0 0 0 1.215-.29 2.267 2.267 0 0 0 .88-.8 2.094 2.094 0 0 0 .325-1.15v-.09h-2.48a2.043 2.043 0 0 0-1.16.27.955.955 0 0 0-.41.825zm8.85-6.82h2.5v1.37a3.21 3.21 0 0 1 1.16-1.145 2.946 2.946 0 0 1 1.5-.425 3.282 3.282 0 0 1 .925.13 3.909 3.909 0 0 1 .935.43l-1.2 2.24a2.787 2.787 0 0 0-.585-.225 2.5 2.5 0 0 0-.665-.095 2 2 0 0 0-1.145.34 1.972 1.972 0 0 0-.745 1.03 3.682 3.682 0 0 0-.145.74q-.045.43-.045 1.23v4.24h-2.49z"/>
    </g>
  </symbol>
</svg>